<?xml version="1.0" standalone="no"?>
<!DOCTYPE svg PUBLIC "-//W3C//DTD SVG 1.1//EN" "http://www.w3.org/Graphics/SVG/1.1/DTD/svg11.dtd" >
<svg xmlns="http://www.w3.org/2000/svg">
<metadata>
Created by FontForge 20120731 at Tue May  9 10:38:37 2017
 By admin
</metadata>
<defs>
<font id="iconfont" horiz-adv-x="1024" >
  <font-face 
    font-family="iconfont"
    font-weight="500"
    font-stretch="normal"
    units-per-em="1024"
    panose-1="2 0 6 3 0 0 0 0 0 0"
    ascent="896"
    descent="-128"
    x-height="792"
    bbox="0 -66 1024 896"
    underline-thickness="0"
    underline-position="0"
    unicode-range="U+0078-E7CF"
  />
<missing-glyph 
 />
    <glyph glyph-name=".notdef" 
 />
    <glyph glyph-name=".notdef" 
 />
    <glyph glyph-name=".null" horiz-adv-x="0" 
 />
    <glyph glyph-name="nonmarkingreturn" horiz-adv-x="341" 
 />
    <glyph glyph-name="x" unicode="x" horiz-adv-x="1001" 
d="M281 543q-27 -1 -53 -1h-83q-18 0 -36.5 -6t-32.5 -18.5t-23 -32t-9 -45.5v-76h912v41q0 16 -0.5 30t-0.5 18q0 13 -5 29t-17 29.5t-31.5 22.5t-49.5 9h-133v-97h-438v97zM955 310v-52q0 -23 0.5 -52t0.5 -58t-10.5 -47.5t-26 -30t-33 -16t-31.5 -4.5q-14 -1 -29.5 -0.5
t-29.5 0.5h-32l-45 128h-439l-44 -128h-29h-34q-20 0 -45 1q-25 0 -41 9.5t-25.5 23t-13.5 29.5t-4 30v167h911zM163 247q-12 0 -21 -8.5t-9 -21.5t9 -21.5t21 -8.5q13 0 22 8.5t9 21.5t-9 21.5t-22 8.5zM316 123q-8 -26 -14 -48q-5 -19 -10.5 -37t-7.5 -25t-3 -15t1 -14.5
t9.5 -10.5t21.5 -4h37h67h81h80h64h36q23 0 34 12t2 38q-5 13 -9.5 30.5t-9.5 34.5q-5 19 -11 39h-368zM336 498v228q0 11 2.5 23t10 21.5t20.5 15.5t34 6h188q31 0 51.5 -14.5t20.5 -52.5v-227h-327z" />
    <glyph glyph-name="zheng" unicode="&#xe698;" 
d="M513 842q-110 0 -203 -54t-147.5 -147.5t-54.5 -203.5t54.5 -203t147.5 -147t203 -54t203 54t147 147t54 203t-54 203.5t-147 147.5t-203 54zM513.5 71q-99.5 0 -183.5 49t-133 133.5t-49 184t49 184t133 133.5t183.5 49t184 -49t133.5 -133.5t49 -184t-49 -184
t-133.5 -133.5t-184 -49zM408 583q-20 69 -42 102l-76 -26q33 -63 46 -102q52 17 72 26zM629 435h92v63h-92v100h109v61h-298v-61h120v-320h-42v198q0 26 7 42v6q12 4 -65 4h-11v-250h-39v-58h337v58h-118v157zM416 415q-4 -4 -13 -15q-11 -15 -22 -26v157h-137v-61h68v-126
q2 -46 -31 -77q29 -50 44 -69q4 6 30 39q72 96 92 124q-22 37 -31 54z" />
    <glyph glyph-name="jiebang" unicode="&#xe7cf;" 
d="M525 235q-8 7 -18.5 6t-17.5 -9l-110 -131q-39 -47 -94 -57.5t-93.5 21.5t-37.5 88t40 103l110 131q7 8 6 19t-9 17.5t-18.5 5.5t-17.5 -9l-110 -131q-53 -63 -52 -140t56 -123q42 -36 101 -36q43 0 85 20t73 58l110 131q7 8 6 18.5t-9 17.5zM910.5 683.5
q-30.5 65.5 -106.5 86.5q-73 20 -146 -15l-157 -72q-9 -5 -12.5 -15t0.5 -19.5t14 -13t20 0.5l156 73q57 26 112 11q52 -14 73 -58t-2 -94q-24 -51 -80 -78l-157 -73q-10 -4 -13.5 -14t0.5 -20q7 -14 23 -14q6 0 11 2l157 73q74 34 105 103q33 71 2.5 136.5zM407 581
q4 -10 7 -9.5t4 10.5l17 143q1 10 -5.5 16.5t-17.5 5.5l-35 -4q-10 -1 -15 -9t-2 -18zM186 635l138 -50q10 -4 12 -1t-5 10l-96 99q-7 8 -17 7.5t-17 -9.5l-23 -28q-7 -8 -4.5 -16.5t12.5 -11.5zM187 464l139 34q11 2 10.5 5t-10.5 5l-139 23q-10 1 -17.5 -5t-7.5 -16v-27
q1 -10 8 -16t17 -3zM412 323q8 -7 18 -7q11 0 19 8l187 208q7 8 6.5 18.5t-8 17.5t-18.5 6.5t-18 -8.5l-187 -207q-7 -8 -6.5 -18.5t7.5 -17.5z" />
    <glyph glyph-name="asmkticon0120" unicode="&#xe600;" 
d="M801 512h-24q-4 107 -81 181.5t-184.5 74.5t-184.5 -74.5t-81 -181.5h-23q-39 0 -67 -28t-28 -67v-111q0 -39 28 -67t67 -28h97v301h-35q4 91 70 154.5t157 63.5t157 -63.5t70 -154.5h-35v-301h41q-25 -88 -105 -132q-61 -33 -127 -27q-8 1 -14 -4t-7 -13t4 -14t13 -7
q17 -1 25 -1q66 0 125 32q47 26 80 69.5t46 96.5h16q39 0 67 28t28 67v111q0 39 -28 67t-67 28zM282 250h-59q-23 0 -40 16.5t-17 40.5v110q0 23 17 40t40 17h59v-224zM858 306q0 -24 -17 -40.5t-40 -16.5h-59v225h59q23 0 40 -17t17 -40v-111z" />
    <glyph glyph-name="asmkticon0101" unicode="&#xe601;" 
d="M512 179zM461 179q0 21 15 36t36 15t36 -15t15 -36t-15 -36t-36 -15t-36 15t-15 36zM512 339q-36 0 -67.5 -16.5t-52.5 -46.5q-10 -15 5 -26q16 -11 27 5q15 21 38.5 33.5t49.5 12.5q57 0 88 -46q7 -9 16 -9q6 0 11 4q7 4 8.5 12t-3.5 14q-20 30 -52 46.5t-68 16.5z
M893 440q-66 94 -166.5 147t-214.5 53t-214.5 -53t-166.5 -147q-10 -16 5 -27q16 -10 27 6q60 85 152.5 134t196.5 49t196.5 -49t152.5 -134q6 -9 16 -9q5 0 11 3q6 5 7.5 13t-2.5 14zM512 481q-75 0 -141 -34.5t-109 -96.5q-10 -16 5 -27q16 -10 27 5q37 54 95 84.5
t123 30.5t123 -30.5t96 -84.5q6 -8 16 -8q5 0 11 3q6 4 7.5 12t-2.5 15q-43 62 -109.5 96.5t-141.5 34.5z" />
    <glyph glyph-name="asmkticon0102" unicode="&#xe602;" 
d="M819 672h-614q-32 0 -54.5 -22.5t-22.5 -54.5v-422q0 -32 22.5 -54.5t54.5 -22.5h614q32 0 54.5 22.5t22.5 54.5v422q0 32 -22.5 54.5t-54.5 22.5zM205 634h614q16 0 27.5 -11.5t11.5 -27.5v-83h-692v83q0 16 11.5 27.5t27.5 11.5zM819 134h-614q-16 0 -27.5 11.5
t-11.5 27.5v275h692v-275q0 -16 -11.5 -27.5t-27.5 -11.5zM320 307h-64q-8 0 -13.5 -5.5t-5.5 -13.5t5.5 -13.5t13.5 -5.5h64q8 0 13.5 5.5t5.5 13.5t-5.5 13.5t-13.5 5.5zM576 307h-160q-8 0 -13.5 -5.5t-5.5 -13.5t5.5 -13.5t13.5 -5.5h160q8 0 13.5 5.5t5.5 13.5
t-5.5 13.5t-13.5 5.5z" />
    <glyph glyph-name="asmkticon0103" unicode="&#xe603;" 
d="M881 90l-187 187q-22 22 -51 14l-39 39q65 78 60.5 182t-78.5 177q-78 79 -190 79t-189 -79q-79 -78 -79 -189.5t78.5 -190t189.5 -78.5q96 0 170 61l39 -39q-7 -29 14 -51l187 -187q15 -16 37 -16t38 16q15 16 15 38t-15 37zM234 337q-68 67 -68 162.5t67.5 163
t163 67.5t162.5 -67.5t67 -163t-67 -162.5t-163 -67q-94 -1 -162 67z" />
    <glyph glyph-name="asmkticon0104" unicode="&#xe604;" 
d="M845 582h-87q63 27 78 69v1q8 28 -0.5 51t-32.5 37q-21 12 -50.5 14t-62 -5.5t-66 -26t-60.5 -46.5q-5 -5 -5 -13t6 -13.5t14 -5t13 5.5q23 24 51.5 40t54.5 21.5t48.5 4.5t36.5 -9q24 -14 16 -45q-14 -37 -93 -56.5t-159 -19.5h-2q4 11 -5 21q-115 98 -200 132
q-90 36 -138 -3q-29 -23 -23 -60q5 -28 30 -52t66 -39q2 -1 5 -2t5 -1h-106q-24 0 -40.5 -16.5t-16.5 -40.5v-85q0 -34 32 -51v-296q0 -33 23.5 -57t57.5 -24h555q33 0 57 24t24 57v297q14 7 23 20.5t9 30.5v84q0 24 -17 40.5t-41 16.5zM218 682q-2 15 9 25q12 10 39 10
t62 -14q79 -32 176 -115q-136 6 -214 33q-33 13 -51 29.5t-21 31.5zM160 525q0 8 5.5 13.5t13.5 5.5h667q8 0 13.5 -5.5t5.5 -13.5v-85q0 -7 -5.5 -12.5t-13.5 -5.5h-667q-8 0 -13.5 5.5t-5.5 12.5v85zM832 94q0 -18 -12.5 -30.5t-30.5 -12.5h-554q-18 0 -30.5 12.5
t-12.5 30.5v290h640v-290z" />
    <glyph glyph-name="asmkticon0105" unicode="&#xe605;" 
d="M871 166q-27 16 -58 33.5t-48 27.5l-17 9q-6 4 -15 8.5t-34 5t-46 -13.5q-3 -4 -11 -9t-25 -10.5t-34 -4.5q-51 5 -104 53.5t-155 182.5q-10 28 -2 45.5t26 24.5q8 4 16 11.5t14.5 19t5 28.5t-12.5 35q-13 23 -36.5 58.5t-40.5 59.5l-17 24q-1 2 -4 4.5t-12.5 6.5
t-20 3.5t-26 -10t-31.5 -28.5q-38 -45 -49 -81.5t4 -86.5t65 -122q34 -51 71 -98t89.5 -102t106 -99.5t120.5 -82.5t134 -57q32 -3 61 4.5t49 22t33 28t21 25.5q10 16 9 34q-3 36 -26 51z" />
    <glyph glyph-name="asmkticon0106" unicode="&#xe606;" 
d="M800 480q0 120 -84 204t-204 84t-204 -84t-84 -204q0 -88 49 -160v0v-1q1 0 1 -0.5t1 -1.5l211 -303v-1v0v0q10 -13 26 -13t26 13v0v1v0l211 303q1 1 1 1.5t1 0.5v1v0q49 72 49 160zM719 341v0v-1l-1 -1l-206 -295l-206 295l-1 1v0v1q-43 63 -43 139q0 103 73.5 176.5
t176.5 73.5t176.5 -73.5t73.5 -176.5q0 -76 -43 -139zM512 480zM384 480q0 53 37.5 90.5t90.5 37.5t90.5 -37.5t37.5 -90.5t-37.5 -90.5t-90.5 -37.5t-90.5 37.5t-37.5 90.5z" />
    <glyph glyph-name="asmkticon0107" unicode="&#xe607;" 
d="M657 702h11q75 -4 129 -57.5t60 -128.5q4 -49 -14.5 -92.5t-54.5 -74.5l-236 -266v0q-13 -17 -40 -17t-40 17v0l-236 266q-36 31 -54.5 75t-14.5 92q6 75 60 128t129 57h11q82 0 145 -64q62 65 145 65zM657 740q-78 0 -145 -51q-67 51 -145 51h-13q-89 -5 -153.5 -68.5
t-71.5 -152.5q-4 -57 16.5 -108.5t63.5 -89.5l235 -264q24 -29 69 -29q43 0 68 28q0 1 1 1l235 264q42 38 62.5 89.5t16.5 108.5q-7 89 -71 152.5t-154 68.5h-14v0z" />
    <glyph glyph-name="asmkticon0108" unicode="&#xe608;" 
d="M512 768q-159 0 -271.5 -112.5t-112.5 -271.5t112.5 -271.5t271.5 -112.5t271.5 112.5t112.5 271.5t-112.5 271.5t-271.5 112.5zM512 38q-94 0 -173.5 46.5t-126 126t-46.5 173.5t46.5 173.5t126 126t173.5 46.5t173.5 -46.5t126 -126t46.5 -173.5t-46.5 -173.5
t-126 -126t-173.5 -46.5zM698 403h-167v205q0 8 -5.5 13.5t-13.5 5.5t-13.5 -5.5t-5.5 -13.5v-224q0 -8 5.5 -13.5t13.5 -5.5h3h2h1h180q8 0 13.5 5.5t5.5 13.5t-5.5 13.5t-13.5 5.5z" />
    <glyph glyph-name="asmkticon0109" unicode="&#xe609;" 
d="M512 768q-159 0 -271.5 -112.5t-112.5 -271.5t112.5 -271.5t271.5 -112.5t271.5 112.5t112.5 271.5t-112.5 271.5t-271.5 112.5zM531 39v166q0 8 -5.5 13.5t-13.5 5.5t-13.5 -5.5t-5.5 -13.5v-166q-132 7 -225.5 100.5t-100.5 225.5h166q8 0 13.5 5.5t5.5 13.5t-5.5 13.5
t-13.5 5.5h-166q7 132 100.5 225.5t225.5 100.5v-166q0 -8 5.5 -13.5t13.5 -5.5t13.5 5.5t5.5 13.5v166q132 -7 225.5 -100.5t100.5 -225.5h-166q-8 0 -13.5 -5.5t-5.5 -13.5t5.5 -13.5t13.5 -5.5h166q-7 -132 -100.5 -225.5t-225.5 -100.5zM512 384zM461 384q0 21 15 36
t36 15t36 -15t15 -36t-15 -36t-36 -15t-36 15t-15 36z" />
    <glyph glyph-name="asmkticon0110" unicode="&#xe60a;" 
d="M512 768q-93 0 -158.5 -65.5t-65.5 -158.5q0 -65 34 -119t90 -81q-105 -33 -172 -122.5t-67 -202.5q0 -8 5.5 -13.5t13.5 -5.5t13.5 5.5t5.5 13.5q0 125 88.5 213t212.5 88q93 0 158.5 65.5t65.5 158.5t-65.5 158.5t-158.5 65.5zM512 358q-77 0 -131.5 54.5t-54.5 131.5
t54.5 131.5t131.5 54.5t131.5 -54.5t54.5 -131.5t-54.5 -131.5t-131.5 -54.5zM761 250q-27 29 -59 50q-16 10 -27 -5q-10 -16 5 -27q27 -17 53 -45q80 -86 80 -204q0 -9 5.5 -14.5t13.5 -5.5t13.5 5.5t5.5 14.5q0 133 -90 231z" />
    <glyph glyph-name="asmkticon0111" unicode="&#xe60b;" 
d="M531 639v91h71q8 0 13.5 5.5t5.5 13.5t-5.5 13.5t-13.5 5.5h-180q-8 0 -13.5 -5.5t-5.5 -13.5t5.5 -13.5t13.5 -5.5h71v-91q-126 -7 -213.5 -99.5t-87.5 -219.5q0 -132 94 -226t226 -94t226 94t94 226q0 127 -87.5 219.5t-213.5 99.5zM512 38q-117 0 -199.5 82.5
t-82.5 199.5t82.5 199.5t199.5 82.5t199.5 -82.5t82.5 -199.5t-82.5 -199.5t-199.5 -82.5zM531 367v119q0 9 -5.5 14.5t-13.5 5.5t-13.5 -5.5t-5.5 -14.5v-119q-14 -5 -23 -18t-9 -29q0 -21 15 -36t36 -15t36 15t15 36q0 16 -9 28.5t-23 18.5z" />
    <glyph glyph-name="asmkticon0112" unicode="&#xe60c;" 
d="M909 512h-13v115q0 32 -22.5 54.5t-54.5 22.5h-614q-32 0 -54.5 -22.5t-22.5 -54.5v-486q0 -32 22.5 -54.5t54.5 -22.5h614q32 0 54.5 22.5t22.5 54.5v115h13q21 0 36 15t15 36v154q0 21 -15 36t-36 15zM858 141q0 -16 -11.5 -27.5t-27.5 -11.5h-614q-16 0 -27.5 11.5
t-11.5 27.5v486q0 16 11.5 27.5t27.5 11.5h614q16 0 27.5 -11.5t11.5 -27.5v-115h-231q-21 0 -36 -15t-15 -36v-154q0 -21 15 -36t36 -15h231v-115zM757 384q0 -21 -15 -36t-36 -15t-36 15t-15 36t15 36t36 15t36 -15t15 -36z" />
    <glyph glyph-name="asmkticon0113" unicode="&#xe60d;" 
d="M659 768h-294q-32 0 -54.5 -22.5t-22.5 -54.5v-614q0 -32 22.5 -54.5t54.5 -22.5h294q32 0 54.5 22.5t22.5 54.5v614q0 32 -22.5 54.5t-54.5 22.5zM602 704q0 -5 -4 -9t-9 -4h-154q-5 0 -9 4t-4 9t4 9t9 4h154q5 0 9 -4t4 -9zM698 659v-537h-372v537h372zM544 76.5
q0 -13.5 -9.5 -22.5t-22.5 -9t-22.5 9t-9.5 22.5t9.5 23t22.5 9.5t22.5 -9.5t9.5 -23z" />
    <glyph glyph-name="asmkticon0114" unicode="&#xe60e;" 
d="M673 716l-249 26q-2 0 -4.5 0.5t-4.5 0.5q-29 0 -51 -19.5t-25 -48.5l-56 -538q-3 -29 15 -54v-2h2q19 -25 51 -29l250 -26h4h4q28 0 49 18h2v1q23 20 25 50l57 537q3 31 -17.5 56t-51.5 28zM623 663q-1 -11 -13 -10l-138 15q-12 1 -11 12q2 12 13 11l138 -15
q12 -1 11 -13zM512 105q-1 -12 -10.5 -19.5t-21.5 -6t-19.5 10.5t-6 21t10.5 19.5t21 6.5t19.5 -10.5t6.5 -21.5zM650 131l-326 35l50 483l327 -35zM836 386q0 42 -35 68q-16 10 -27 -5q-10 -16 6 -27q19 -14 19 -36q0 -23 -19 -36q-7 -4 -8.5 -12t2.5 -15q7 -8 16 -8
q6 0 11 3q35 26 35 68zM827 518q-16 11 -27 -5q-10 -16 5 -27q25 -17 39 -43.5t14 -56.5t-14 -57t-39 -44q-7 -4 -8 -12t3 -14q6 -9 16 -9q6 0 11 3q32 23 50.5 58.5t18.5 74.5t-18.5 74.5t-50.5 57.5zM261 419q7 4 8.5 12t-3 14.5t-12.5 8t-15 -2.5q-36 -26 -36 -70t36 -69
q4 -3 11 -3q10 0 16 8q10 16 -5 27q-20 14 -20 38q0 23 20 37zM221 276q-25 18 -40 46t-15 59t15 58.5t40 45.5q7 4 8.5 12t-3 15t-12.5 8.5t-14 -3.5q-34 -23 -53 -59t-19 -77t19 -77t52 -60q4 -3 11 -3q10 0 16 9q5 6 3.5 14t-8.5 12z" />
    <glyph glyph-name="asmkticon0115" unicode="&#xe60f;" 
d="M681 721q-7 4 -14.5 1.5t-11.5 -9.5t-2 -14.5t9 -11.5q85 -46 133.5 -128t48.5 -178q0 -93 -49 -174t-133 -127q-7 -4 -9 -11.5t2 -14.5q5 -10 16 -10q6 0 9 2q94 52 148.5 142t54.5 194q0 106 -54 197t-148 142zM691 384q0 54 -29 101t-80 74v175q0 14 -10 24v0
q-2 3 -4 4l-1 1q-3 1 -4 2l-0.5 0.5t-1.5 0.5l-1.5 0.5t-2.5 0.5t-1.5 0.5l-0.5 0.5h-7q-4 0 -6 -1h-1h-1q-1 -1 -2.5 -1t-1.5 -1h-1.5h-0.5q-3 -1 -4 -3h-1q0 -1 -1.5 -2t-2.5 -2l-149 -148h-171q-32 0 -54.5 -22.5t-22.5 -54.5v-294q0 -32 22.5 -54.5t54.5 -22.5h171
l148 -152q3 -3 5 -4v0l4 -2l1 -0.5l1 -0.5q1 0 2.5 -0.5t2.5 -0.5l0.5 -0.5l0.5 -0.5h6.5h6.5q1 0 1.5 0.5l0.5 0.5q1 0 2.5 0.5t2.5 0.5l0.5 0.5t1.5 0.5q1 1 3 2h1q1 1 2.5 2t2.5 2v0q10 10 10 24v175q51 27 80 74t29 101zM166 239v294q0 16 11.5 27.5t27.5 11.5h153v-372
h-153q-16 0 -27.5 11.5t-11.5 27.5zM544 45l-140 144l-7 7v380v0l6 6l141 141v-678zM582 254v260q34 -23 52.5 -57.5t18.5 -72.5t-18.5 -72.5t-52.5 -57.5z" />
    <glyph glyph-name="asmkticon0116" unicode="&#xe610;" 
d="M830 675l60 60q6 6 6 14t-6 13q-6 6 -13.5 6t-13.5 -6l-60 -60l-60 60q-6 6 -14 6t-13 -6q-6 -6 -6 -13.5t6 -13.5l60 -60l-60 -60q-6 -6 -6 -14t6 -13q6 -6 13.5 -6t13.5 6l60 60l60 -60q6 -6 13.5 -6t13.5 6t6 14t-6 13zM582 559v175q0 14 -10 24v0q-2 3 -4 4l-1 1
q-3 1 -4 2l-0.5 0.5t-1.5 0.5l-1.5 0.5t-2.5 0.5t-1.5 0.5l-0.5 0.5h-7q-4 0 -6 -1h-1h-1q-1 -1 -2.5 -1t-1.5 -1h-1.5h-0.5q-3 -1 -4 -3h-1q0 -1 -1.5 -2t-2.5 -2l-149 -148h-171q-32 0 -54.5 -22.5t-22.5 -54.5v-294q0 -32 22.5 -54.5t54.5 -22.5h171l148 -152q3 -3 5 -4
v0l4 -2l1 -0.5l1 -0.5q1 0 2.5 -0.5t2.5 -0.5l0.5 -0.5l0.5 -0.5h6.5h6.5q1 0 1.5 0.5l0.5 0.5q1 0 2.5 0.5t2.5 0.5l0.5 0.5t1.5 0.5q1 1 3 2h1q1 1 2.5 2t2.5 2v0q10 10 10 24v175q50 27 79.5 74t29.5 101t-29 101t-80 74zM166 239v294q0 16 11.5 27.5t27.5 11.5h153v-372
h-153q-16 0 -27.5 11.5t-11.5 27.5zM544 45l-140 144l-7 7v380v0l6 6l141 141v-678zM582 254v260q34 -23 52.5 -57.5t18.5 -72.5t-18.5 -72.5t-52.5 -57.5z" />
    <glyph glyph-name="asmkticon0117" unicode="&#xe611;" 
d="M865 304l-56 42v0q3 21 3 37q0 22 -4 38l57 42q18 14 22.5 36t-7.5 42l-43 70q-18 28 -50 28q-11 0 -22 -3l-69 -27l-4 3q-33 24 -67 37l-2 1l-11 66q-3 22 -19.5 36.5t-38.5 14.5h-85q-22 0 -38.5 -14.5t-19.5 -36.5l-10 -66l-3 -1q-35 -14 -67 -37l-3 -3l-70 27
q-11 3 -21 3q-33 0 -51 -28l-43 -70q-12 -20 -7.5 -42.5t23.5 -35.5l56 -42v0q-3 -27 -3 -38q0 -20 3 -37l-56 -42q-19 -14 -23.5 -36t7.5 -42l43 -70q18 -29 51 -29q10 0 21 4l70 26l3 -2q33 -24 67 -37l2 -1l13 -84q2 -14 13 -23.5t25 -9.5h103q22 0 38.5 14t19.5 37
l11 66l2 1q34 13 67 37l4 2l69 -26q11 -4 22 -4q32 0 50 29l43 70q12 20 8 42.5t-23 35.5zM848 246l-43 -71q-6 -10 -18 -10q-2 0 -7 1l-79 30q-5 2 -7 2q-7 0 -12 -4l-11 -8q-31 -21 -59 -32l-12 -5q-11 -4 -12 -16l-12 -77q-1 -7 -7 -12.5t-13 -5.5h-105l-14 95
q-2 12 -13 16l-12 5q-31 12 -59 32l-11 8q-5 4 -12 4q-2 0 -7 -2l-79 -30q-5 -1 -8 -1q-12 0 -18 10l-43 71q-4 7 -2.5 14.5t7.5 12.5l65 48q10 8 8 19l-1 11q-2 21 -2 33t2 33l1 10q2 12 -8 19l-65 48q-6 5 -7.5 13t2.5 15l43 70q6 10 18 10q3 0 8 -1l78 -30q5 -1 8 -1
q6 0 12 3l11 8q29 21 59 33l11 4q12 5 13 16l11 77q1 8 7 13t14 5h86q7 0 13 -5t7 -13l12 -77q2 -12 12 -16l13 -4q30 -12 58 -32l11 -9q6 -3 12 -3q3 0 8 1l79 30q5 1 8 1q11 0 17 -10l43 -70q5 -7 3.5 -15t-8.5 -13l-64 -48q-10 -7 -9 -19l2 -10q2 -22 2 -33q0 -12 -2 -33
l-2 -10q-2 -12 9 -19l64 -48q15 -12 6 -28zM512 557v0v0zM526 556q-4 1 -14 1v-39h11q49 -4 84 -39.5t39 -83.5q5 -58 -35 -103q-40 -43 -99 -43q-7 0 -11 1q-49 3 -84 38.5t-39 83.5q-5 59 35 103q41 43 99 43v39v0q-75 0 -126.5 -55.5t-45.5 -131.5q5 -63 50 -108t108 -50
q4 -1 14 -1q75 0 126.5 55.5t45.5 131.5q-5 63 -50 108t-108 50z" />
    <glyph glyph-name="asmkticon0118" unicode="&#xe612;" 
d="M879 684q-7 9 -19 7l-678 -167q-31 -8 -39 -38q-8 -31 14 -53l131 -130l-26 -204q-2 -13 9 -20q5 -2 10 -2q7 0 12 4l72 58q6 5 7 13t-4 14t-13 7t-14 -4l-34 -28l16 129l178 -177q16 -16 39 -16v0q32 0 48 30l295 557q3 11 -4 20zM180 476q2 8 11 11l571 140l-452 -292
l-126 125q-6 6 -4 16zM552 124q-4 -9 -14 -9q-7 0 -12 5l-188 187l474 306z" />
    <glyph glyph-name="asmkticon0119" unicode="&#xe613;" 
d="M678 576v26q0 68 -48.5 117t-117.5 49t-117.5 -49t-48.5 -117v-26h-103v-499q0 -32 22.5 -54.5t54.5 -22.5h384q32 0 54.5 22.5t22.5 54.5v499h-103zM384 602q0 52 37.5 90t90.5 38t90.5 -38t37.5 -90v-26h-256v26zM742 77q0 -16 -11 -27.5t-27 -11.5h-384
q-16 0 -27 11.5t-11 27.5v461h64v-58q0 -8 5.5 -13.5t13.5 -5.5t13.5 5.5t5.5 13.5v58h256v-58q0 -8 5.5 -13.5t13.5 -5.5t13.5 5.5t5.5 13.5v58h64v-461z" />
    <glyph glyph-name="asmkticon0121" unicode="&#xe614;" 
d="M304 17q-25 0 -40 21q-13 19 -5 43l69 210l-181 131q-12 8 -17 22.5t0 29.5t17 24t28 9l223 -1l69 213q5 15 17.5 24t27.5 9t27 -8t17 -21q0 -1 0.5 -2t0.5 -2l68 -212l224 1q15 0 27.5 -9t17 -24t0 -29.5t-17.5 -23.5l-180 -131l69 -212q8 -22 -6 -42t-39 -20
q-15 0 -28 9l-180 131l-180 -131q-12 -9 -28 -9zM175 469q-5 0 -8 -5q0 -1 -1 -1q-1 -6 3 -9l193 -140q11 -9 7 -22l-73 -224v-1q-2 -4 0 -8q4 -5 8 -5q3 0 4 2l192 140q12 8 22 0l192 -140q7 -5 12 3q3 3 1 8l-74 225q-4 13 7 22l192 138q6 4 4 11q-2 5 -9 5h-237v0
q-15 0 -19 13l-70 224l-0.5 1l-0.5 1q-2 6 -9 6t-8 -6l-72 -225q-5 -14 -19 -14v0z" />
    <glyph glyph-name="asmkticon0122" unicode="&#xe615;" 
d="M672 173zM621 173q0 21 15 36t36 15t36 -15t15 -36t-15 -36t-36 -15t-36 15t-15 36zM301 173zM250 173q0 21 15 36t36 15t36 -15t15 -36t-15 -36t-36 -15t-36 15t-15 36zM877 678h-487q-8 0 -13.5 -5.5t-5.5 -13.5v-162h-96q-6 0 -13 -4l-128 -113q-6 -6 -6 -15v-142
q0 -8 5.5 -13.5t13.5 -5.5h64q8 0 13.5 5.5t5.5 13.5t-5.5 13.5t-13.5 5.5h-45v115l116 102h89v-236q0 -8 5.5 -13.5t13.5 -5.5h186q8 0 13.5 5.5t5.5 13.5t-5.5 13.5t-13.5 5.5h-166v236v162h448v-398h-90q-8 0 -13.5 -5.5t-5.5 -13.5t5.5 -13.5t13.5 -5.5h109
q8 0 13.5 5.5t5.5 13.5v436q0 8 -5.5 13.5t-13.5 5.5zM275 312l45 39q6 6 6.5 13.5t-4.5 13.5t-13 6.5t-14 -4.5l-45 -40q-6 -5 -6.5 -13t4.5 -13q6 -7 15 -7q8 0 12 5z" />
    <glyph glyph-name="asmkticon0123" unicode="&#xe616;" 
d="M259 141zM208 141q0 21 15 36t36 15t36 -15t15 -36t-15 -36t-36 -15t-36 15t-15 36zM541 141zM490 141q0 21 15 36t36 15t36 -15t15 -36t-15 -36t-36 -15t-36 15t-15 36zM877 739h-112q-14 0 -19 -14l-41 -139h-558q-9 0 -15 -8q-6 -7 -3 -17l48 -183q4 -14 19 -14h444
l-35 -118h-400q-8 0 -13.5 -5.5t-5.5 -14t5.5 -14t13.5 -5.5h415q14 0 18 14l142 480h97q8 0 13.5 5.5t5.5 13.5t-5.5 13.5t-13.5 5.5zM172 547h516l-42 -145h-435z" />
    <glyph glyph-name="asmkticon0124" unicode="&#xe617;" 
d="M672 499h-320q-8 0 -13.5 -5.5t-5.5 -13.5t5.5 -13.5t13.5 -5.5h320q8 0 13.5 5.5t5.5 13.5t-5.5 13.5t-13.5 5.5zM672 371h-320q-8 0 -13.5 -5.5t-5.5 -13.5t5.5 -13.5t13.5 -5.5h320q8 0 13.5 5.5t5.5 13.5t-5.5 13.5t-13.5 5.5zM544 243h-192q-8 0 -13.5 -5.5
t-5.5 -13.5t5.5 -13.5t13.5 -5.5h192q8 0 13.5 5.5t5.5 13.5t-5.5 13.5t-13.5 5.5zM640 768h-371q-32 0 -54.5 -22.5t-22.5 -54.5v-614q0 -32 22.5 -54.5t54.5 -22.5h486q32 0 54.5 22.5t22.5 54.5v499zM653 701l112 -112h-55q-24 0 -40.5 16.5t-16.5 40.5v55zM755 38h-486
q-16 0 -27.5 11.5t-11.5 27.5v614q0 16 11.5 27.5t27.5 11.5h345v-84q0 -39 28.5 -67.5t67.5 -28.5h84v-473q0 -16 -11.5 -27.5t-27.5 -11.5z" />
    <glyph glyph-name="asmkticon0125" unicode="&#xe618;" 
d="M813 512q-8 0 -13.5 -5.5t-5.5 -13.5v-397q0 -24 -17 -41t-41 -17h-448q-24 0 -41 17t-17 41v576q0 24 17 41t41 17h397q8 0 13.5 5.5t5.5 13.5t-5.5 13.5t-13.5 5.5h-397q-40 0 -68 -28t-28 -68v-576q0 -40 28 -68t68 -28h448q40 0 68 28t28 68v397q0 8 -5.5 13.5
t-13.5 5.5zM333 352q0 -8 5.5 -13.5t13.5 -5.5h320q8 0 13.5 5.5t5.5 13.5t-5.5 13.5t-13.5 5.5h-320q-8 0 -13.5 -5.5t-5.5 -13.5zM890 762q-6 6 -13.5 6t-13.5 -6l-204 -205q-6 -5 -6 -13t6 -13q5 -6 13 -6t13 6l205 204q14 14 0 27zM544 499h-192q-8 0 -13.5 -5.5
t-5.5 -13.5t5.5 -13.5t13.5 -5.5h192q8 0 13.5 5.5t5.5 13.5t-5.5 13.5t-13.5 5.5z" />
    <glyph glyph-name="asmkticon0126" unicode="&#xe619;" 
d="M736 768h-64q-8 0 -13.5 -5.5t-5.5 -13.5t5.5 -13.5t13.5 -5.5h64q24 0 41 -17t17 -41v-576q0 -24 -17 -41t-41 -17h-448q-24 0 -41 17t-17 41v576q0 24 17 41t41 17h64q8 0 13.5 5.5t5.5 13.5t-5.5 13.5t-13.5 5.5h-64q-40 0 -68 -28t-28 -68v-576q0 -40 28 -68t68 -28
h448q40 0 68 28t28 68v576q0 40 -28 68t-68 28zM672 371h-320q-8 0 -13.5 -5.5t-5.5 -13.5t5.5 -13.5t13.5 -5.5h320q8 0 13.5 5.5t5.5 13.5t-5.5 13.5t-13.5 5.5zM672 499h-320q-8 0 -13.5 -5.5t-5.5 -13.5t5.5 -13.5t13.5 -5.5h320q8 0 13.5 5.5t5.5 13.5t-5.5 13.5
t-13.5 5.5zM448 730h128q8 0 13.5 5.5t5.5 13.5t-5.5 13.5t-13.5 5.5h-128q-8 0 -13.5 -5.5t-5.5 -13.5t5.5 -13.5t13.5 -5.5zM672 244h-320q-8 0 -13.5 -5.5t-5.5 -14t5.5 -14t13.5 -5.5h320q8 0 13.5 5.5t5.5 14t-5.5 14t-13.5 5.5z" />
    <glyph glyph-name="asmkticon0127" unicode="&#xe61a;" 
d="M893 395q-73 108 -172.5 167.5t-208.5 59.5t-208.5 -59.5t-172.5 -167.5q-7 -11 0 -21q73 -109 172.5 -168t208.5 -59t208.5 59.5t172.5 167.5q8 10 0 21zM512 184q-97 0 -186 52t-156 148q67 96 156 148t186 52t186 -52t156 -148q-67 -96 -156 -148t-186 -52zM512 384z
M397 384q0 48 33.5 81.5t81.5 33.5t81.5 -33.5t33.5 -81.5t-33.5 -81.5t-81.5 -33.5t-81.5 33.5t-33.5 81.5z" />
    <glyph glyph-name="asmkticon0128" unicode="&#xe61b;" 
d="M893 547q10 15 -5 26q-16 10 -27 -5q-67 -100 -158.5 -155.5t-190.5 -55.5t-190.5 55.5t-158.5 155.5q-4 7 -12 8.5t-15 -3.5q-6 -4 -8 -12t3 -14q60 -91 141 -148l-80 -80q-6 -5 -6 -13t6 -14q6 -5 13.5 -5t13.5 5l86 86q89 -54 188 -59v-108q0 -9 5.5 -14.5t13.5 -5.5
t13.5 5.5t5.5 14.5v108q97 5 188 59l85 -86q6 -5 14 -5t13.5 5.5t5.5 13.5t-6 13l-79 80q80 56 141 148z" />
    <glyph glyph-name="asmkticon0129" unicode="&#xe61c;" 
d="M795 704h-566q-36 0 -62 -26t-26 -62v-336q0 -36 26 -62t62 -26h38l-13 -140l212 140h329q36 0 62 26t26 62v336q0 36 -26 62t-62 26zM845 280q0 -20 -14.5 -35t-35.5 -15h-341l-154 -102l9 102h-80q-21 0 -35.5 15t-14.5 35v336q0 20 14.5 35t35.5 15h566q21 0 35.5 -15
t14.5 -35v-336zM338 446zM287 446q0 21 15 36t36 15t36 -15t15 -36t-15 -36t-36 -15t-36 15t-15 36zM515 446zM463 446q0 21 15 36t36.5 15t36.5 -15t15 -36t-15 -36t-36.5 -15t-36.5 15t-15 36zM691 446zM640 446q0 21 15 36t36 15t36 -15t15 -36t-15 -36t-36 -15t-36 15
t-15 36z" />
    <glyph glyph-name="asmkticon0130" unicode="&#xe61d;" 
d="M890 365l-103 103v140q0 8 -5.5 13.5t-13.5 5.5t-13.5 -5.5t-5.5 -13.5v-101l-224 223q-5 6 -13 6t-13 -6l-365 -365q-6 -5 -6 -13t6 -13q6 -6 13.5 -6t13.5 6l351 351l351 -351q6 -6 13.5 -6t13.5 6q14 13 0 26zM768 390q-8 0 -13.5 -5.5t-5.5 -13.5v-269
q0 -13 -9.5 -22.5t-22.5 -9.5h-410q-13 0 -22.5 9.5t-9.5 22.5v269q0 8 -5.5 13.5t-13.5 5.5t-13.5 -5.5t-5.5 -13.5v-269q0 -29 20.5 -49.5t49.5 -20.5h410q29 0 49.5 20.5t20.5 49.5v269q0 8 -5.5 13.5t-13.5 5.5z" />
    <glyph glyph-name="asmkticon0131" unicode="&#xe61e;" 
d="M886 511l-172 199q-11 13 -29 13h-345q-18 0 -29 -13l-173 -197q-9 -10 -9 -24t9 -25l345 -424q11 -14 29 -14v0q18 0 29 14l345 423q10 10 10 23.5t-10 24.5zM372 509l140 160l138 -160h-278zM644 470l-132 -352l-132 352h264zM339 470l135 -359l-293 359h158zM685 470
h159l-294 -359zM837 509h-136q-1 0 -1.5 1l-0.5 1l-151 174h137zM340 685h136l-151 -172l-2 -4h-137z" />
    <glyph glyph-name="asmkticon0132" unicode="&#xe61f;" 
d="M835 691l-16 16q-34 34 -82 34t-82 -34l-130 -130q-32 -32 -33.5 -78t28.5 -80l-43 -43q-33 28 -76 28q-48 0 -82 -33l-130 -130q-34 -34 -34 -82t34 -82l16 -16q34 -34 82 -34t82 34l130 130q32 32 33.5 78t-28.5 80l44 43q32 -28 76 -28q48 0 82 33l130 130
q33 34 33 82t-34 82zM472 218l-130 -130q-23 -23 -55 -23q-33 0 -54 23l-17 16q-22 23 -22 55q0 33 22 54l130 131q22 22 54 22q27 0 49 -17l-52 -53q-6 -5 -6 -13t6 -14q6 -5 13.5 -5t13.5 5l52 53q19 -23 18 -53t-22 -51zM808 554l-130 -130q-22 -22 -54 -22q-27 0 -49 17
l52 53q6 5 6 13t-6 14q-6 5 -13.5 5t-13.5 -5l-52 -53q-19 23 -17.5 53t22.5 51l130 130q22 22 54 22q33 0 55 -22l16 -17q23 -22 23 -54t-23 -55z" />
    <glyph glyph-name="asmkticon0133" unicode="&#xe620;" 
d="M806 768h-524q-37 0 -63.5 -26.5t-26.5 -63.5v-89h38v89q0 22 15 37t37 15h524q22 0 37 -15t15 -37v-588q0 -22 -15 -37t-37 -15h-524q-22 0 -37 15t-15 37v89h-38v-89q0 -37 26.5 -63.5t63.5 -26.5h524q37 0 63.5 26.5t26.5 63.5v588q0 37 -26.5 63.5t-63.5 26.5z
M637 339q-10 -16 6 -27q18 -13 30 -27q47 -50 47 -119q0 -8 5.5 -13.5t13.5 -5.5t13.5 5.5t5.5 13.5q0 83 -57 145q-13 15 -37 32q-7 5 -14.5 3.5t-12.5 -7.5zM330 166q0 -8 5.5 -13.5t14 -5.5t14 5.5t5.5 13.5q0 72 50 123t122 53h4q56 0 96 39.5t40 96.5q-1 57 -40.5 96.5
t-96.5 39.5t-96.5 -39.5t-39.5 -96.5q0 -34 16 -63.5t43 -48.5q-61 -24 -99 -78t-38 -122zM446 478q0 40 29 69t69 29t69 -29t29 -69t-28 -68.5t-68 -29.5h-2h-4q-39 2 -66.5 30t-27.5 68zM147 365h90q8 0 13.5 5.5t5.5 13.5t-5.5 13.5t-13.5 5.5h-90q-8 0 -13.5 -5.5
t-5.5 -13.5t5.5 -13.5t13.5 -5.5zM256 256q0 8 -5.5 13.5t-13.5 5.5h-90q-8 0 -13.5 -5.5t-5.5 -13.5t5.5 -13.5t13.5 -5.5h90q8 0 13.5 5.5t5.5 13.5zM147 493h90q8 0 13.5 5.5t5.5 13.5t-5.5 13.5t-13.5 5.5h-90q-8 0 -13.5 -5.5t-5.5 -13.5t5.5 -13.5t13.5 -5.5z" />
    <glyph glyph-name="asmkticon0134" unicode="&#xe621;" 
d="M877 749q-5 6 -13 6t-13 -6l-59 -58q-52 43 -121 43q-81 0 -136 -56l-100 -99l272 -272l99 99q53 53 56.5 127t-43.5 131l58 58q14 14 0 27zM779 434l-72 -72l-217 217l72 72q45 45 109 45t109 -45q44 -45 44 -108.5t-45 -108.5zM571 325q6 6 6 14t-6 13t-14 5.5
t-13 -5.5l-59 -59l-63 63l59 59q5 6 5 14t-5 13q-6 6 -14 6t-13 -6l-60 -58l-77 77l-99 -99q-53 -53 -56.5 -127t43.5 -131l-58 -58q-6 -6 -6 -14t6 -13q5 -6 13 -6t13 6l59 58q52 -42 121 -42q81 0 136 56l100 98l-77 77zM462 117q-45 -45 -109 -45t-109 45t-45 108.5
t45 108.5l73 72l217 -217z" />
    <glyph glyph-name="asmkticon0135" unicode="&#xe622;" 
d="M806 755h-588q-37 0 -63.5 -26.5t-26.5 -63.5v-121h38v121q0 22 15.5 37t36.5 15h588q21 0 36.5 -15t15.5 -37v-121h38v121q0 37 -26.5 63.5t-63.5 26.5zM858 103q0 -22 -15.5 -37t-36.5 -15h-588q-22 0 -37 15t-15 37v121h-39v-121q0 -37 26.5 -63.5t64.5 -26.5h588
q37 0 63.5 26.5t26.5 63.5v121h-38v-121zM128 403h768v-38h-768v38z" />
    <glyph glyph-name="asmkticon0136" unicode="&#xe623;" 
d="M493 608v-109h-141q-8 0 -13.5 -5.5t-5.5 -13.5t5.5 -13.5t13.5 -5.5h141v-237q0 -8 5.5 -13.5t13.5 -5.5t13.5 5.5t5.5 13.5v237h141q8 0 13.5 5.5t5.5 13.5t-5.5 13.5t-13.5 5.5h-141v109q0 8 -5.5 13.5t-13.5 5.5t-13.5 -5.5t-5.5 -13.5zM813 696l-301 72l-294 -72
l-26 -5v-334q0 -40 17 -80q15 -38 43 -77q38 -53 56 -71q36 -35 70 -60q37 -26 69 -43q30 -17 58 -24l7 -2l8 2q26 7 57 24q29 15 66 43q35 26 67 60q48 48 64 71q26 38 42 77t16 80v334zM794 357q0 -33 -14 -66q-14 -36 -38 -70q-14 -20 -54 -60l-5 -5q-30 -31 -63 -57
q-32 -24 -62 -40q-25 -14 -46 -20q-22 6 -47 20q-29 15 -64 40q-32 24 -66 57q-21 21 -45 56q-1 2 -3.5 5t-2.5 4q-25 35 -40 70q-13 33 -13 65v303l282 69l281 -67v-304v0z" />
    <glyph glyph-name="asmkticon0137" unicode="&#xe624;" 
d="M531 608v58h111q8 0 13.5 5.5t5.5 13.5t-5.5 13.5t-13.5 5.5h-264q-9 0 -14.5 -5.5t-5.5 -13.5t5.5 -13.5t14.5 -5.5h115v-58q-100 -5 -184 -57.5t-132.5 -138.5t-48.5 -187v-52h768v52q0 101 -48.5 187.5t-132.5 138.5t-184 57zM858 211h-692v14q0 93 46.5 173t126 126
t173.5 46t173.5 -46t126 -126t46.5 -173v-14zM877 102h-730q-8 0 -13.5 -5.5t-5.5 -13.5t5.5 -13.5t13.5 -5.5h730q8 0 13.5 5.5t5.5 13.5t-5.5 13.5t-13.5 5.5z" />
    <glyph glyph-name="asmkticon0138" unicode="&#xe625;" 
d="M626 768q-112 0 -191 -79t-79 -191q0 -52 19 -101l-167 -167q-31 -30 -31 -74q0 -34 19 -61l-59 -59q-6 -5 -6 -13t6 -13q6 -6 13.5 -6t13.5 6l59 58q26 -18 60 -18q44 0 75 31l167 166q49 -19 100 -19q112 0 191 79t79 191q1 112 -78 191t-191 79zM331 107
q-20 -20 -48 -20t-48 20t-20 48t20 48l158 158q35 -61 96 -96zM520 291l-2 2l-1 -1q-63 34 -96 96l1 1l-2 2q-26 49 -26 106q0 45 18 88l302 -303q-42 -17 -87 -17q-57 1 -107 26zM749 301l-320 320q32 50 84 79.5t113 29.5q96 0 164 -68t68 -164q0 -61 -29.5 -113
t-79.5 -84z" />
    <glyph glyph-name="asmkticon0139" unicode="&#xe626;" 
d="M896 698q0 36 -17 52q-18 18 -54 18q-54 0 -97 -43l-154 -155q-2 0 -66.5 4.5t-101.5 6.5q-146 10 -149 10h-4q-20 0 -39 -15q-34 -29 -54 -49q-15 -16 -13 -35q1 -20 22 -28q4 -1 42 -15.5t91.5 -34.5t84.5 -31l-86 -89h-13h-55q-11 0 -25.5 0.5t-15.5 0.5v-5l-1 4h-2
q-18 0 -46 -23l-2 -2q-11 -11 -13 -27q-1 -16 12 -26q20 -15 126 -80q5 -7 25 -39t29 -47q17 -28 22 -35q9 -14 25 -15h1q15 0 31 15q23 26 23 48v1v44v64l89 86q72 -196 80 -216q9 -21 29 -23q18 -2 34 14q20 20 49 55q17 20 15 43q0 2 -7 117q-2 36 -6 106t-5 92l154 155
q42 43 42 97zM667 474q-12 -12 -11 -29q8 -138 12 -191v-10q1 -20 3 -49t3 -46.5t1 -19.5q0 -9 -5 -16q-13 -16 -43 -48q-44 120 -79 214q-7 19 -26 23q-20 4 -34 -10l-98 -92q-10 -10 -11 -25v-67v-43v-4q-1 -4 -8 -14l-16 25q-5 9 -54 88q-5 7 -12 12q-67 41 -114 71
q5 3 8.5 5.5t5 3.5l1.5 1h8q18 0 30 -1h4h71q14 0 26 10l93 97q14 14 10 34q-4 19 -23 26q-128 47 -216 81q31 29 48 43q7 5 12 5h3q4 0 148 -9q31 -2 170 -11q17 -1 28 11l156 156q31 31 68 31q14 0 24 -5q4 -4 5.5 -17t-6 -34.5t-25.5 -39.5z" />
    <glyph glyph-name="asmkticon0140" unicode="&#xe627;" 
d="M819 653h-614q-32 0 -54.5 -22.5t-22.5 -54.5v-384q0 -32 22.5 -54.5t54.5 -22.5h614q32 0 54.5 22.5t22.5 54.5v384q0 32 -22.5 54.5t-54.5 22.5zM858 192v0l-160 218l160 160v-378zM819 614q11 0 22 -6l-267 -267q-26 -25 -62 -25t-62 25l-267 267q11 6 22 6h614z
M166 192v0v379l160 -160zM205 154q-9 0 -16 3l165 226l68 -69q38 -37 90 -37t90 37l68 69l165 -226q-7 -4 -16 -4h-614v1z" />
    <glyph glyph-name="asmkticon0160" unicode="&#xe628;" 
d="M709 577q-34 58 -91 91t-124 33q-88 0 -156 -54t-86 -139q-54 -12 -89 -55t-35 -99q0 -65 46.5 -111.5t111.5 -46.5q8 0 13.5 5.5t5.5 13.5t-5.5 13.5t-13.5 5.5q-49 1 -84.5 36t-35.5 84q0 45 29.5 78.5t74.5 39.5l14 2l3 14q12 76 70.5 125.5t136.5 49.5
q52 0 97.5 -23.5t75.5 -66.5q-72 -15 -114 -73q-5 -6 -3.5 -14t7.5 -12.5t14 -3.5t13 7q43 58 113 62h4h5q63 0 107.5 -45t44.5 -107.5t-44.5 -107.5t-107.5 -45q-8 0 -13.5 -5.5t-5.5 -13.5t5.5 -13.5t13.5 -5.5q79 0 135 56t56 135q-1 78 -55.5 133.5t-132.5 56.5z
M601 199l-70 -70v229q0 9 -5.5 14.5t-13.5 5.5t-13.5 -5.5t-5.5 -14.5v-229l-70 70q-6 6 -14 6t-13 -6q-6 -6 -6 -14t6 -13l103 -102q1 -2 3 -3h0.5h0.5q0 -1 1 -1t1 -1h1h1l0.5 -0.5t1.5 -0.5l1.5 -0.5t2.5 -0.5q2 0 3 1q1 0 1.5 0.5t1 0.5h1h0.5q1 0 2 2h1h1l3 3l102 102
q6 6 6 14t-6 13q-15 13 -28 0z" />
    <glyph glyph-name="asmkticon0141" unicode="&#xe629;" 
d="M810 682q-42 41 -101 41t-100 -41l-48 -48q-6 -6 -6 -14t6 -13q5 -6 13 -6t14 6l48 48q30 30 73 30t73 -30.5t30 -73.5t-30 -73l-395 -395q-30 -30 -73 -30t-73.5 30.5t-30.5 73.5t31 73l63 63l5 5l179 179q12 12 30 12q17 0 30 -12q12 -13 12 -30t-12 -30l-173 -173
q-6 -6 -6 -14t6 -13q6 -6 13.5 -6t13.5 6l173 173q24 24 24 57.5t-23.5 57t-57 23.5t-57.5 -24l-178 -179l-5 -5l-64 -63q-41 -42 -41 -101t41.5 -100.5t100.5 -41.5t100 42l395 395q42 41 42 100q-1 60 -42 101z" />
    <glyph glyph-name="asmkticon0142" unicode="&#xe62a;" 
d="M442 371h-58v58q0 8 -5.5 13.5t-13.5 5.5t-13.5 -5.5t-5.5 -13.5v-58h-58q-8 0 -13.5 -5.5t-5.5 -13.5t5.5 -13.5t13.5 -5.5h58v-58q0 -8 5.5 -13.5t13.5 -5.5t13.5 5.5t5.5 13.5v58h58q8 0 13.5 5.5t5.5 13.5t-5.5 13.5t-13.5 5.5zM608 352zM576 352q0 13 9.5 22.5
t22.5 9.5t22.5 -9.5t9.5 -22.5t-9.5 -22.5t-22.5 -9.5t-22.5 9.5t-9.5 22.5zM736 352zM704 352q0 13 9.5 22.5t22.5 9.5t22.5 -9.5t9.5 -22.5t-9.5 -22.5t-22.5 -9.5t-22.5 9.5t-9.5 22.5zM672 576h-141v96q0 8 -5.5 13.5t-13.5 5.5t-13.5 -5.5t-5.5 -13.5v-96h-141
q-93 0 -158.5 -66t-65.5 -158v0q0 -92 66 -158t158 -66h320q93 0 158.5 66t65.5 158v0q0 92 -65.5 158t-158.5 66zM672 166h-320q-77 0 -131.5 54.5t-54.5 131.5t54.5 131.5t131.5 54.5h320q77 0 131.5 -54.5t54.5 -131.5t-54.5 -131.5t-131.5 -54.5z" />
    <glyph glyph-name="asmkticon0143" unicode="&#xe62b;" 
d="M512 384zM461 384q0 21 15 36t36 15t36 -15t15 -36t-15 -36t-36 -15t-36 15t-15 36zM663 500q-16 11 -27 -5q-10 -16 5 -27q44 -30 44 -84t-44 -84q-6 -5 -7.5 -13t2.5 -14q6 -9 16 -9q6 0 11 4q29 19 45 50t16 66q0 34 -16.5 65t-44.5 51zM750 626q-16 10 -27 -5
q-10 -16 5 -27q52 -36 81 -91.5t29 -118.5t-29 -119t-81 -92q-6 -4 -7.5 -12t2.5 -14q6 -9 16 -9q6 0 11 3q60 42 93.5 106.5t33.5 136.5t-33.5 136.5t-93.5 105.5zM383 300q-44 30 -44 84t44 84q6 5 7.5 13t-2.5 14.5t-12 8t-15 -3.5q-29 -19 -45 -50t-16 -66
q0 -34 16.5 -65t44.5 -51q4 -4 11 -4q10 0 16 9q4 6 2.5 14t-7.5 13zM296 173q-52 36 -81 92t-29 119t29 119t81 92q6 4 7.5 12t-2.5 14.5t-12 8t-15 -2.5q-60 -42 -93.5 -106.5t-33.5 -136.5t33.5 -136.5t93.5 -105.5q4 -3 11 -3q10 0 16 8q4 6 2.5 14t-7.5 12z" />
    <glyph glyph-name="asmkticon0145" unicode="&#xe62d;" 
d="M755 448h-416v109q0 71 50.5 122t122.5 51t122.5 -51t50.5 -122v-37q0 -8 5.5 -14t13.5 -6t13.5 6t5.5 14v37q0 87 -62 149t-149 62t-149 -62t-62 -149v-109h-32q-32 0 -54.5 -22.5t-22.5 -54.5v-294q0 -32 22.5 -54.5t54.5 -22.5h486q32 0 54.5 22.5t22.5 54.5v294
q0 32 -22.5 54.5t-54.5 22.5zM794 77q0 -16 -11.5 -27.5t-27.5 -11.5h-486q-16 0 -27.5 11.5t-11.5 27.5v294q0 16 11.5 27.5t27.5 11.5h486q16 0 27.5 -11.5t11.5 -27.5v-294zM531 237v45q0 8 -5.5 13.5t-13.5 5.5t-13.5 -5.5t-5.5 -13.5v-45q-13 -10 -13 -26
q0 -13 9.5 -22.5t22.5 -9.5t22.5 9.5t9.5 22.5q0 16 -13 26z" />
    <glyph glyph-name="asmkticon0146" unicode="&#xe62e;" 
d="M608 467h-192q-8 0 -13.5 -5.5t-5.5 -13.5t5.5 -13.5t13.5 -5.5h192q8 0 13.5 5.5t5.5 13.5t-5.5 13.5t-13.5 5.5zM608 337h-192q-8 0 -13.5 -5.5t-5.5 -13.5t5.5 -13.5t13.5 -5.5h192q8 0 13.5 5.5t5.5 13.5t-5.5 13.5t-13.5 5.5zM896 479v116q0 32 -22.5 54.5
t-54.5 22.5h-614q-32 0 -54.5 -22.5t-22.5 -54.5v-116q35 -4 59 -31t24 -64q0 -36 -24 -63.5t-59 -31.5v-116q0 -32 22.5 -54.5t54.5 -22.5h614q32 0 54.5 22.5t22.5 54.5v116q-35 4 -59 31t-24 64q0 36 24 63.5t59 31.5zM774 384q0 -41 23 -75t61 -49v-87
q0 -16 -11.5 -27.5t-27.5 -11.5h-614q-16 0 -27.5 11.5t-11.5 27.5v87q38 15 61 49t23 75t-23 75t-61 49v87q0 16 11.5 27.5t27.5 11.5h614q16 0 27.5 -11.5t11.5 -27.5v-87q-38 -15 -61 -49t-23 -75z" />
    <glyph glyph-name="asmkticon0147" unicode="&#xe62f;" 
d="M384 418q-8 0 -13.5 -5.5t-5.5 -13.5v-30q0 -8 5.5 -13.5t13.5 -5.5t13.5 5.5t5.5 13.5v30q0 8 -5.5 13.5t-13.5 5.5zM384 297q-8 0 -13.5 -5.5t-5.5 -13.5v-30q0 -8 5.5 -13.5t13.5 -5.5t13.5 5.5t5.5 13.5v30q0 8 -5.5 13.5t-13.5 5.5zM384 538q-8 0 -13.5 -5.5
t-5.5 -13.5v-29q0 -9 5.5 -14.5t13.5 -5.5t13.5 5.5t5.5 14.5v29q0 8 -5.5 13.5t-13.5 5.5zM749 557q-5 6 -13 6t-13 -6l-83 -82l-83 82q-5 6 -13 6t-13 -6q-6 -5 -6 -13t6 -13l88 -89h-75q-8 0 -13.5 -5.5t-5.5 -13.5t5.5 -13.5t13.5 -5.5h77v-50h-77q-8 0 -13.5 -5.5
t-5.5 -13.5t5.5 -13.5t13.5 -5.5h77v-92q0 -8 5.5 -13.5t13.5 -5.5t13.5 5.5t5.5 13.5v92h77q8 0 13.5 5.5t5.5 13.5t-5.5 13.5t-13.5 5.5h-77v50h77q8 0 13.5 5.5t5.5 13.5t-5.5 13.5t-13.5 5.5h-75l88 89q14 13 0 26zM819 672h-614q-32 0 -54.5 -22.5t-22.5 -54.5v-116
q38 -2 64 -29.5t26 -65.5t-26 -65.5t-64 -29.5v-116q0 -32 22.5 -54.5t54.5 -22.5h614q32 0 54.5 22.5t22.5 54.5v422q0 32 -22.5 54.5t-54.5 22.5zM858 173q0 -16 -11.5 -27.5t-27.5 -11.5h-416v23q0 9 -5.5 14.5t-13.5 5.5t-13.5 -5.5t-5.5 -14.5v-23h-160
q-16 0 -27.5 11.5t-11.5 27.5v84q40 14 65 49t25 78t-25 78t-65 49v84q0 16 11.5 27.5t27.5 11.5h160v-23q0 -9 5.5 -14.5t13.5 -5.5t13.5 5.5t5.5 14.5v23h416q16 0 27.5 -11.5t11.5 -27.5v-422z" />
    <glyph glyph-name="asmkticon0148" unicode="&#xe630;" 
d="M429 557q-5 6 -13 6t-13 -6q-6 -5 -6 -13t6 -13l88 -89h-75q-8 0 -13.5 -5.5t-5.5 -13.5t5.5 -13.5t13.5 -5.5h77v-50h-77q-8 0 -13.5 -5.5t-5.5 -13.5t5.5 -13.5t13.5 -5.5h77v-92q0 -8 5.5 -13.5t13.5 -5.5t13.5 5.5t5.5 13.5v92h77q8 0 13.5 5.5t5.5 13.5t-5.5 13.5
t-13.5 5.5h-77v50h77q8 0 13.5 5.5t5.5 13.5t-5.5 13.5t-13.5 5.5h-75l88 89q6 5 6 13t-6 13q-5 6 -13 6t-13 -6l-83 -82zM813 696l-301 72l-294 -72l-26 -5v-334q0 -40 17 -80q15 -38 43 -77q38 -53 56 -71q36 -35 70 -60q37 -26 69 -43q30 -17 58 -24l7 -2l8 2q26 7 56 24
q29 15 67 43q34 26 67 60q48 48 63 71q26 38 42 77t16 80v334zM794 357q0 -33 -14 -66q-14 -36 -38 -70q-14 -20 -54 -60l-5 -5q-30 -31 -63 -57q-32 -24 -62 -40q-25 -14 -46 -20q-22 6 -47 20q-29 15 -64 40q-32 24 -66 57q-21 21 -45 56q-1 2 -3.5 5t-2.5 4
q-25 35 -40 70q-13 33 -13 65v303l282 69l281 -67v-304v0z" />
    <glyph glyph-name="asmkticon0149" unicode="&#xe631;" 
d="M512 768q-159 0 -271.5 -112.5t-112.5 -271.5t112.5 -271.5t271.5 -112.5t271.5 112.5t112.5 271.5t-112.5 271.5t-271.5 112.5zM512 38q-94 0 -173.5 46.5t-126 126t-46.5 173.5t46.5 173.5t126 126t173.5 46.5t173.5 -46.5t126 -126t46.5 -173.5t-46.5 -173.5
t-126 -126t-173.5 -46.5zM621 557q-5 6 -13 6t-13 -6l-83 -82l-83 82q-5 6 -13 6t-13 -6q-6 -5 -6 -13t6 -13l88 -89h-75q-8 0 -13.5 -5.5t-5.5 -13.5t5.5 -13.5t13.5 -5.5h77v-50h-77q-8 0 -13.5 -5.5t-5.5 -13.5t5.5 -13.5t13.5 -5.5h77v-92q0 -8 5.5 -13.5t13.5 -5.5
t13.5 5.5t5.5 13.5v92h77q8 0 13.5 5.5t5.5 13.5t-5.5 13.5t-13.5 5.5h-77v50h77q8 0 13.5 5.5t5.5 13.5t-5.5 13.5t-13.5 5.5h-75l88 89q6 5 6 13t-6 13z" />
    <glyph glyph-name="asmkticon0150" unicode="&#xe632;" 
d="M416 252q-8 0 -13.5 -6t-5.5 -14t5.5 -13.5t13.5 -5.5h77v-91q0 -9 5.5 -14.5t13.5 -5.5t13.5 5.5t5.5 14.5v91h77q8 0 13.5 5.5t5.5 13.5t-5.5 14t-13.5 6h-77v49h77q8 0 13.5 5.5t5.5 14t-5.5 14t-13.5 5.5h-75l88 88q6 6 6 14t-6 13q-5 6 -13 6t-13 -6l-83 -83l-83 83
q-5 6 -13 6t-13 -6q-6 -6 -6 -14t6 -13l88 -88h-75q-8 0 -13.5 -5.5t-5.5 -14t5.5 -14t13.5 -5.5h77v-49h-77zM730 768h-436q-31 0 -53.5 -22.5t-22.5 -54.5v-89q0 -13 12 -18l276 -91q4 -1 6 -1t6 1l276 91q12 5 12 18v89q0 32 -22.5 54.5t-53.5 22.5zM768 616l-256 -85
l-256 85v75q0 16 11.5 27.5t26.5 11.5h436q15 0 26.5 -11.5t11.5 -27.5v-75zM787 531q-8 0 -13.5 -5.5t-5.5 -13.5v-416q0 -24 -17 -41t-41 -17h-396q-24 0 -41 17t-17 41v416q0 8 -5.5 13.5t-13.5 5.5t-13.5 -5.5t-5.5 -13.5v-416q0 -40 28 -68t68 -28h396q40 0 68 28
t28 68v416q0 8 -5.5 13.5t-13.5 5.5z" />
    <glyph glyph-name="asmkticon0151" unicode="&#xe633;" 
d="M685 531zM634 531q0 21 15 36t36 15t36 -15t15 -36t-15 -36t-36 -15t-36 15t-15 36zM827 704h-631q-28 0 -48 -20t-20 -49v-503q0 -28 20 -48.5t49 -20.5h631q28 0 48.5 20.5t20.5 48.5v503q-1 29 -21 49t-49 20zM197 666h631q12 0 21 -9t9 -22v-492l-175 194
q-19 21 -48 19t-45 -26l-36 -54l-99 115q-20 23 -50 22t-48 -25l-191 -254v501q0 13 9 22t22 9zM197 102q-2 0 -9 2q6 2 8 6l191 254q8 10 19 10q13 0 20 -9l106 -122l-28 -43q-10 -15 5 -27q15 -9 27 6l86 129q6 8 15.5 9t16.5 -7l184 -202q0 -1 1.5 -2t2.5 -2
q-7 -3 -14 -3z" />
    <glyph glyph-name="asmkticon0152" unicode="&#xe634;" 
d="M611 464q0 41 -29 70t-70 29t-70 -29t-29 -70t29 -70t70 -29t70 29t29 70zM451 464q0 25 18 43t43 18t43 -18t18 -43t-18 -43t-43 -18t-43 18t-18 43zM891 27q-109 119 -270 153q87 34 141 111t54 173q0 126 -89 215t-215 89t-215 -89t-89 -215q0 -96 54 -173t141 -111
q-161 -34 -270 -153q-5 -6 -4.5 -14t6 -13t13.5 -4.5t13 5.5q67 73 159 113t192 40t192 -40t159 -113q6 -7 13.5 -7t13.5 5q5 6 5.5 14t-4.5 14zM246 464q0 110 78 188t188 78t188 -78t78 -188t-78 -188t-188 -78t-188 78t-78 188z" />
    <glyph glyph-name="asmkticon0153" unicode="&#xe635;" 
d="M512 768q-111 0 -190 -78.5t-79 -190t79 -190.5t190 -79t190 79t79 190.5t-79 190t-190 78.5zM512 269q-96 0 -163 67.5t-67 163t67 163t163 67.5t163 -67.5t67 -163t-67 -163t-163 -67.5zM608 128h-192q-8 0 -13.5 -5.5t-5.5 -13.5t5.5 -13.5t13.5 -5.5h192
q8 0 13.5 5.5t5.5 13.5t-5.5 13.5t-13.5 5.5zM608 205h-192q-8 0 -13.5 -5.5t-5.5 -14t5.5 -14t13.5 -5.5h192q8 0 13.5 5.5t5.5 14t-5.5 14t-13.5 5.5zM534 51h-44q-9 0 -14.5 -5.5t-5.5 -13.5t5.5 -13.5t14.5 -5.5h44q9 0 14.5 5.5t5.5 13.5t-5.5 13.5t-14.5 5.5z" />
    <glyph glyph-name="asmkticon0154" unicode="&#xe636;" 
d="M768 576q-8 0 -13.5 -5.5t-5.5 -13.5v-469q0 -20 -14.5 -35t-35.5 -15h-374q-21 0 -35.5 15t-14.5 35v469q0 8 -5.5 13.5t-13.5 5.5t-13.5 -5.5t-5.5 -13.5v-469q0 -36 26 -62t62 -26h375q36 0 62 26t26 62v469q-1 8 -6.5 13.5t-13.5 5.5zM832 640h-205v83q0 19 -13 32
t-32 13h-140q-19 0 -32 -13t-13 -32v-83h-205q-8 0 -13.5 -5.5t-5.5 -13.5t5.5 -13.5t13.5 -5.5h640q8 0 13.5 5.5t5.5 13.5t-5.5 13.5t-13.5 5.5zM435 723q0 7 7 7h140q7 0 7 -7v-83h-154v83zM435 179v275q0 9 -5.5 14.5t-13.5 5.5t-13.5 -5.5t-5.5 -14.5v-275
q0 -8 5.5 -13.5t13.5 -5.5t13.5 5.5t5.5 13.5zM627 179v275q0 9 -5.5 14.5t-13.5 5.5t-13.5 -5.5t-5.5 -14.5v-275q0 -8 5.5 -13.5t13.5 -5.5t13.5 5.5t5.5 13.5z" />
    <glyph glyph-name="asmkticon0155" unicode="&#xe637;" 
d="M166 678q0 21 15.5 36.5t36.5 15.5h588q21 0 36.5 -15.5t15.5 -36.5v-134h38v134q0 37 -26.5 63.5t-63.5 26.5h-588q-37 0 -63.5 -26.5t-26.5 -63.5v-230h38v230zM858 90q0 -21 -15 -36.5t-37 -15.5h-588q-22 0 -37 15.5t-15 36.5v134h-39v-134q0 -37 26.5 -63.5
t64.5 -26.5h588q38 0 64.5 26.5t26.5 63.5v230h-39v-230zM957 503q-5 7 -12.5 8.5t-13.5 -2.5l-352 -229l-192 192l-313 -174q-7 -4 -9.5 -11.5t1.5 -14.5t11.5 -9t14.5 1l288 160l193 -193l377 245q17 11 7 27z" />
    <glyph glyph-name="asmkticon0156" unicode="&#xe638;" 
d="M768 467q-8 0 -13.5 -5.5t-5.5 -13.5v-26q0 -98 -69.5 -167t-167.5 -69t-167.5 69t-69.5 167v26q0 8 -5.5 13.5t-13.5 5.5t-13.5 -5.5t-5.5 -13.5v-26q0 -108 74 -187t182 -87v-110h-109q-8 0 -13.5 -5.5t-5.5 -13.5t5.5 -13.5t13.5 -5.5h256q8 0 13.5 5.5t5.5 13.5
t-5.5 13.5t-13.5 5.5h-109v110q108 7 182 86.5t74 187.5v26q0 8 -5.5 13.5t-13.5 5.5zM508 256h8q67 0 114.5 47.5t47.5 114.5v188q0 67 -47.5 114.5t-114.5 47.5h-8q-67 0 -114.5 -47.5t-47.5 -114.5v-188q0 -67 47.5 -114.5t114.5 -47.5zM384 606q0 51 36.5 87.5
t87.5 36.5h8q51 0 87.5 -36.5t36.5 -87.5v-188q0 -51 -36.5 -87.5t-87.5 -36.5h-8q-51 0 -87.5 36.5t-36.5 87.5v188z" />
    <glyph glyph-name="asmkticon0157" unicode="&#xe639;" 
d="M696 640l136 -137l-54 -52l-96 96v-400l-2 -2q-44 -16 -168 -16q-122 0 -168 16l-2 2v399l-98 -96l-52 54l136 136h78q12 -33 41 -54t65 -21t65 21t41 54h78zM696 678h-78q-27 0 -37 -25q-8 -22 -27 -35.5t-42 -13.5t-42 13.5t-27 35.5q-4 11 -14 18t-23 7h-78
q-17 0 -27 -11l-136 -136q-11 -11 -11 -27t10 -27l53 -53q11 -12 27 -12v0q16 0 27 11l32 31v-307q0 -18 14 -29l2 -2q7 -6 13 -7q50 -19 181 -19q129 0 181 19q9 4 12 7l2 2q13 11 13 29v307l30 -30q12 -12 27 -12t27 11l54 53q11 11 11 26q0 16 -10 28l-137 137
q-10 11 -27 11v0z" />
    <glyph glyph-name="asmkticon0158" unicode="&#xe63a;" 
d="M896 322q0 78 -54.5 133.5t-132.5 57.5q-34 57 -91 90.5t-124 33.5q-88 0 -156 -54.5t-86 -139.5q-54 -12 -89 -55.5t-35 -98.5q0 -65 46.5 -111.5t111.5 -46.5h425h2q76 4 129.5 59t53.5 132zM705 170h-419q-49 0 -84.5 35t-35.5 84q0 45 29.5 78.5t74.5 40.5l14 2l3 14
q12 76 70.5 125t136.5 49q52 0 97.5 -23.5t75.5 -65.5q-72 -15 -114 -73q-5 -6 -3.5 -14t7.5 -13t14 -3.5t13 7.5q43 57 113 61h4h5q63 0 107.5 -44.5t44.5 -107.5t-45 -107.5t-108 -44.5z" />
    <glyph glyph-name="asmkticon0159" unicode="&#xe63b;" 
d="M709 577q-34 58 -91 91t-124 33q-88 0 -156 -54t-86 -139q-54 -12 -89 -55t-35 -99q0 -65 46.5 -111.5t111.5 -46.5q8 0 13.5 5.5t5.5 13.5t-5.5 13.5t-13.5 5.5q-49 1 -84.5 36t-35.5 84q0 45 29.5 78.5t74.5 39.5l14 2l3 14q12 76 70.5 125.5t136.5 49.5
q52 0 97.5 -23.5t75.5 -66.5q-72 -15 -114 -73q-5 -6 -3.5 -14t7.5 -12.5t14 -3.5t13 7q43 58 113 62h4h5q63 0 107.5 -45t44.5 -107.5t-44.5 -107.5t-107.5 -45q-8 0 -13.5 -5.5t-5.5 -13.5t5.5 -13.5t13.5 -5.5q79 0 135 56t56 135q-1 78 -55.5 133.5t-132.5 56.5z
M525 372q-1 2 -3 2l-0.5 0.5l-0.5 0.5l-1 0.5l-1 0.5l-1 0.5l-1 0.5l-0.5 0.5t-1.5 0.5q-4 1 -7 0q-1 0 -1.5 -0.5t-1 -0.5t-1 -0.5l-0.5 -0.5q-1 0 -2 -1q-1 0 -1 -0.5t-1 -0.5t-3 -2l-102 -103q-6 -5 -6 -13t6 -13q6 -6 13.5 -6t13.5 6l71 69v-229q0 -8 5.5 -13.5
t13.5 -5.5t13.5 5.5t5.5 13.5v229l70 -69q6 -6 13.5 -6t13.5 5.5t6 13.5t-6 13z" />
    <glyph glyph-name="asmkticon0170" unicode="&#xe63c;" 
d="M160 211q8 0 13.5 5.5t5.5 13.5v340q0 24 17 40.5t41 16.5h550q24 0 41 -16.5t17 -40.5v-340q0 -8 5.5 -13.5t13.5 -5.5t13.5 5.5t5.5 13.5v340q0 39 -28 67.5t-68 28.5h-550q-40 0 -68 -28.5t-28 -67.5v-340q0 -8 5.5 -13.5t13.5 -5.5zM890 160h-756q-13 0 -22.5 -9.5
t-9.5 -22.5t9.5 -22.5t22.5 -9.5h756q13 0 22.5 9.5t9.5 22.5t-9.5 22.5t-22.5 9.5zM586 109h-148q-8 0 -13.5 5.5t-5.5 13.5t5.5 13.5t13.5 5.5h148q8 0 13.5 -5.5t5.5 -13.5t-5.5 -13.5t-13.5 -5.5z" />
    <glyph glyph-name="asmkticon0161" unicode="&#xe63d;" 
d="M512 768q-159 0 -271.5 -112.5t-112.5 -271.5t112.5 -271.5t271.5 -112.5t271.5 112.5t112.5 271.5t-112.5 271.5t-271.5 112.5zM512 38q-94 0 -173.5 46.5t-126 126t-46.5 173.5t46.5 173.5t126 126t173.5 46.5t173.5 -46.5t126 -126t46.5 -173.5t-46.5 -173.5
t-126 -126t-173.5 -46.5zM609 627l-194 -2q-26 0 -45 -18.5t-19 -44.5v-261v-1q0 -2 1 -3v-1l0.5 -1l0.5 -1v-2q1 0 1 -0.5t1 -0.5v-1q1 0 1.5 -1t0.5 -2v0l141 -140q6 -6 13.5 -6t13.5 6l141 140q8 9 4 21t-17 12h-263v243q0 10 7.5 17.5t17.5 7.5h39v-204q0 -8 5.5 -13.5
t14 -5.5t14 5.5t5.5 13.5v204l116 1q10 0 17.5 -7.5t7.5 -17.5v-180q0 -8 5.5 -13.5t13.5 -5.5t13.5 5.5t5.5 13.5v180q0 26 -18.5 44.5t-44.5 18.5zM607 282l-95 -95l-95 95h190z" />
    <glyph glyph-name="asmkticon0162" unicode="&#xe63e;" 
d="M729.5 333q8.5 0 14 5.5t5.5 13.5v328q0 36 -26 62t-63 26h-296q-37 0 -63 -26t-26 -62v-437v0q0 -2 1 -3v-1v-1v-1q0 -1 1 -1q0 -1 0.5 -1.5l0.5 -0.5q0 -1 1 -1l1 -1t1 -2l218 -224q5 -5 13.5 -5t14.5 5l217 224q9 10 4 22q-4 10 -18 10h-416v418q0 20 14.5 35t35.5 15
h65v-378q0 -8 5.5 -13.5t13.5 -5.5t13.5 5.5t5.5 13.5v378h193q21 0 35.5 -15t14.5 -35v-328q0 -8 5.5 -13.5t14 -5.5zM684 224l-172 -177l-172 177h344z" />
    <glyph glyph-name="asmkticon0163" unicode="&#xe63f;" 
d="M512 550q-8 0 -13.5 -5.5t-5.5 -13.5v-96q0 -8 5.5 -13.5t13.5 -5.5t13.5 5.5t5.5 13.5v96q0 8 -5.5 13.5t-13.5 5.5zM531 703v65q0 8 -5.5 13.5t-13.5 5.5t-13.5 -5.5t-5.5 -13.5v-65q-87 -7 -146 -71.5t-59 -151.5v-256q0 -93 65.5 -158.5t158.5 -65.5v0
q93 0 158.5 65.5t65.5 158.5v256q0 87 -59 151.5t-146 71.5zM698 224q0 -77 -54.5 -131.5t-131.5 -54.5t-131.5 54.5t-54.5 131.5v256q0 77 54.5 131.5t131.5 54.5t131.5 -54.5t54.5 -131.5v-256z" />
    <glyph glyph-name="asmkticon0164" unicode="&#xe640;" 
d="M429 666q8 0 13.5 5.5t5.5 13.5v64q0 8 -5.5 13.5t-13.5 5.5t-13.5 -5.5t-5.5 -13.5v-64q0 -8 5.5 -13.5t13.5 -5.5zM512 666q8 0 13.5 5.5t5.5 13.5v64q0 8 -5.5 13.5t-13.5 5.5t-13.5 -5.5t-5.5 -13.5v-64q0 -8 5.5 -13.5t13.5 -5.5zM595 666q8 0 13.5 5.5t5.5 13.5v64
q0 8 -5.5 13.5t-13.5 5.5t-13.5 -5.5t-5.5 -13.5v-64q0 -8 5.5 -13.5t13.5 -5.5zM736 755h-64q-8 0 -13.5 -5.5t-5.5 -13.5t5.5 -13.5t13.5 -5.5h64q24 0 41 -17t17 -41v-563q0 -24 -17 -41t-41 -17h-448q-24 0 -41 17t-17 41v563q0 24 17 41t41 17h64q8 0 13.5 5.5
t5.5 13.5t-5.5 13.5t-13.5 5.5h-64q-40 0 -68 -28t-28 -68v-563q0 -40 28 -68t68 -28h448q40 0 68 28t28 68v563q0 40 -28 68t-68 28zM672 371h-320q-8 0 -13.5 -5.5t-5.5 -13.5t5.5 -13.5t13.5 -5.5h320q8 0 13.5 5.5t5.5 13.5t-5.5 13.5t-13.5 5.5zM672 499h-320
q-8 0 -13.5 -5.5t-5.5 -13.5t5.5 -13.5t13.5 -5.5h320q8 0 13.5 5.5t5.5 13.5t-5.5 13.5t-13.5 5.5zM672 244h-320q-8 0 -13.5 -5.5t-5.5 -14t5.5 -14t13.5 -5.5h320q8 0 13.5 5.5t5.5 14t-5.5 14t-13.5 5.5z" />
    <glyph glyph-name="asmkticon0165" unicode="&#xe641;" 
d="M256 384zM192 384q0 26 19 45t45 19t45 -19t19 -45t-19 -45t-45 -19t-45 19t-19 45zM512 384zM448 384q0 26 19 45t45 19t45 -19t19 -45t-19 -45t-45 -19t-45 19t-19 45zM768 384zM704 384q0 26 19 45t45 19t45 -19t19 -45t-19 -45t-45 -19t-45 19t-19 45z" />
    <glyph glyph-name="asmkticon0166" unicode="&#xe64e;" 
d="M768 243q-58 0 -93 -47l-309 154q5 17 5 34t-5 34l309 154q35 -47 93 -47q48 0 81.5 33.5t33.5 81.5t-33.5 81.5t-81.5 33.5t-81.5 -33.5t-33.5 -81.5q0 -17 5 -34l-309 -154q-35 47 -93 47q-48 0 -81.5 -33.5t-33.5 -81.5t33.5 -81.5t81.5 -33.5q58 0 93 47l309 -154
q-5 -17 -5 -34q0 -48 33.5 -81.5t81.5 -33.5t81.5 33.5t33.5 81.5t-33.5 81.5t-81.5 33.5zM768 717q32 0 54.5 -22.5t22.5 -54.5t-22.5 -54.5t-54.5 -22.5t-54.5 22.5t-22.5 54.5t22.5 54.5t54.5 22.5zM256 307q-32 0 -54.5 22.5t-22.5 54.5t22.5 54.5t54.5 22.5t54.5 -22.5
t22.5 -54.5t-22.5 -54.5t-54.5 -22.5zM768 51q-32 0 -54.5 22.5t-22.5 54.5t22.5 54.5t54.5 22.5t54.5 -22.5t22.5 -54.5t-22.5 -54.5t-54.5 -22.5z" />
    <glyph glyph-name="asmkticon0167" unicode="&#xe64f;" 
d="M403 768h-198q-32 0 -54.5 -22.5t-22.5 -54.5v-198q0 -32 22.5 -54.5t54.5 -22.5h198q32 0 54.5 22.5t22.5 54.5v198q0 32 -22.5 54.5t-54.5 22.5zM442 493q0 -16 -11.5 -27.5t-27.5 -11.5h-198q-16 0 -27.5 11.5t-11.5 27.5v198q0 16 11.5 27.5t27.5 11.5h198
q16 0 27.5 -11.5t11.5 -27.5v-198zM819 768h-198q-32 0 -54.5 -22.5t-22.5 -54.5v-198q0 -32 22.5 -54.5t54.5 -22.5h198q32 0 54.5 22.5t22.5 54.5v198q0 32 -22.5 54.5t-54.5 22.5zM858 493q0 -16 -11.5 -27.5t-27.5 -11.5h-198q-16 0 -27.5 11.5t-11.5 27.5v198
q0 16 11.5 27.5t27.5 11.5h198q16 0 27.5 -11.5t11.5 -27.5v-198zM403 352h-198q-32 0 -54.5 -22.5t-22.5 -54.5v-198q0 -32 22.5 -54.5t54.5 -22.5h198q32 0 54.5 22.5t22.5 54.5v198q0 32 -22.5 54.5t-54.5 22.5zM442 77q0 -16 -11.5 -27.5t-27.5 -11.5h-198
q-16 0 -27.5 11.5t-11.5 27.5v198q0 16 11.5 27.5t27.5 11.5h198q16 0 27.5 -11.5t11.5 -27.5v-198zM819 352h-198q-32 0 -54.5 -22.5t-22.5 -54.5v-198q0 -32 22.5 -54.5t54.5 -22.5h198q32 0 54.5 22.5t22.5 54.5v198q0 32 -22.5 54.5t-54.5 22.5zM858 77
q0 -16 -11.5 -27.5t-27.5 -11.5h-198q-16 0 -27.5 11.5t-11.5 27.5v198q0 16 11.5 27.5t27.5 11.5h198q16 0 27.5 -11.5t11.5 -27.5v-198z" />
    <glyph glyph-name="asmkticon0168" unicode="&#xe650;" 
d="M908 403q-3 27 -15 47.5t-29.5 30.5t-34 14.5t-32.5 4.5v0h-108q7 45 11 66q20 128 -32 176q-29 26 -63 17q-41 -11 -60.5 -50t-30.5 -116q-6 -44 -46 -91.5t-67 -47.5h-67h-13h-112q-30 0 -52 -21.5t-22 -52.5v-300q0 -31 22 -52.5t52 -21.5h124v410h68q44 0 93.5 58
t57.5 114q11 72 25 100t37 35q15 4 28 -9q37 -34 19 -142l-14 -88q-1 -8 4.5 -14.5t14.5 -6.5h130q3 0 8 -0.5t17 -4t21 -9.5t17 -19t9 -30q2 -22 -14 -44q-23 -29 -23 -60q0 -16 4 -46q3 -29 -3 -46q-3 -8 -16 -21q-10 -10 -16 -17t-13.5 -23t-10.5 -35q-3 -25 -30 -44.5
t-45 -19.5h-246q-8 0 -13.5 -5.5t-5.5 -13.5t5.5 -13.5t13.5 -5.5h247q30 0 68.5 28t44.5 68q4 30 29 53q19 18 25 35q9 26 5 63q-4 29 -4 42q0 17 15 37q1 1 2 3q23 35 21 68zM296 45h-87q-15 0 -25.5 10.5t-10.5 25.5v299q0 15 10.5 25.5t25.5 10.5h86v-371h1z" />
    <glyph glyph-name="asmkticon0169" unicode="&#xe651;" 
d="M885 434q-15 20 -15 37q0 13 4 42q4 37 -5 63q-6 17 -25 35q-9 9 -13 13.5t-9 15.5t-7 24q-6 41 -44.5 68.5t-68.5 27.5h-247q-8 0 -13.5 -5.5t-5.5 -13.5t5.5 -13.5t13.5 -5.5h247q18 0 44.5 -19.5t30.5 -43.5q6 -42 40 -76q13 -13 16 -21q5 -16 2 -46t-3 -46
q0 -30 22 -60q17 -23 15 -44q-1 -21 -11.5 -35t-24.5 -19t-22 -7t-14 -2h-130q-8 0 -15 -6q-5 -6 -4 -15q0 -1 14 -88q17 -108 -19 -142q-12 -11 -28 -8q-23 6 -37.5 34t-25.5 101q-8 56 -57 114.5t-94 58.5h-67v410h-125q-30 0 -52 -22t-22 -53v-300q0 -31 22 -52.5
t52 -21.5h112h12h68q26 0 66 -47.5t47 -91.5q11 -77 30.5 -116t60.5 -50q7 -2 16 -2q26 0 47 19q52 48 32 177q-3 15 -6.5 39t-4.5 26h107h1q15 0 31.5 4.5t34 15t30 30.5t14.5 48q3 35 -22 69zM296 352h-87q-15 0 -25.5 10.5t-10.5 25.5v299q0 15 10.5 25.5t25.5 10.5h86
v-371h1z" />
    <glyph glyph-name="asmkticon0220" unicode="&#xe652;" 
d="M881 659q-7 2 -14 -2t-9 -12l-21 -89q-49 89 -136.5 141t-189.5 52q-100 0 -185.5 -50t-135.5 -135.5t-50 -186t50 -186t135.5 -135.5t185.5 -50q98 0 184 49t136 134q4 6 2 14t-9 12t-15 2t-12 -9q-44 -76 -121 -120t-165 -44q-91 0 -167.5 44.5t-121 121.5t-44.5 167
t44.5 167t121 121.5t167.5 44.5q95 0 176 -50.5t123 -135.5l-107 25q-8 2 -14.5 -2t-8.5 -12t2 -14.5t12 -8.5l144 -34h2h1h1q16 0 19 15l34 144q2 7 -2 14t-12 8z" />
    <glyph glyph-name="asmkticon0201" unicode="&#xe653;" 
d="M288 557h576q8 0 13.5 5.5t5.5 13.5t-5.5 13.5t-13.5 5.5h-576q-8 0 -13.5 -5.5t-5.5 -13.5t5.5 -13.5t13.5 -5.5zM864 403h-576q-8 0 -13.5 -5.5t-5.5 -13.5t5.5 -13.5t13.5 -5.5h576q8 0 13.5 5.5t5.5 13.5t-5.5 13.5t-13.5 5.5zM864 211h-576q-8 0 -13.5 -5.5
t-5.5 -13.5t5.5 -13.5t13.5 -5.5h576q8 0 13.5 5.5t5.5 13.5t-5.5 13.5t-13.5 5.5zM160 576zM128 576q0 13 9.5 22.5t22.5 9.5t22.5 -9.5t9.5 -22.5t-9.5 -22.5t-22.5 -9.5t-22.5 9.5t-9.5 22.5zM160 384zM128 384q0 13 9.5 22.5t22.5 9.5t22.5 -9.5t9.5 -22.5t-9.5 -22.5
t-22.5 -9.5t-22.5 9.5t-9.5 22.5zM160 192zM128 192q0 13 9.5 22.5t22.5 9.5t22.5 -9.5t9.5 -22.5t-9.5 -22.5t-22.5 -9.5t-22.5 9.5t-9.5 22.5z" />
    <glyph glyph-name="asmkticon0202" unicode="&#xe654;" 
d="M864 365h-704q-8 0 -13.5 5.5t-5.5 13.5t5.5 13.5t13.5 5.5h704q8 0 13.5 -5.5t5.5 -13.5t-5.5 -13.5t-13.5 -5.5z" />
    <glyph glyph-name="asmkticon0203" unicode="&#xe655;" 
d="M864 403h-333v333q0 8 -5.5 13.5t-13.5 5.5t-13.5 -5.5t-5.5 -13.5v-333h-333q-8 0 -13.5 -5.5t-5.5 -13.5t5.5 -13.5t13.5 -5.5h333v-333q0 -8 5.5 -13.5t13.5 -5.5t13.5 5.5t5.5 13.5v333h333q8 0 13.5 5.5t5.5 13.5t-5.5 13.5t-13.5 5.5z" />
    <glyph glyph-name="asmkticon0204" unicode="&#xe656;" 
d="M539 384l235 236q6 5 6 13t-6 13q-5 6 -13 6t-13 -6l-236 -235l-236 235q-5 6 -13 6t-13 -6q-6 -5 -6 -13t6 -13l235 -236l-235 -236q-6 -5 -6 -13t6 -13q5 -6 13 -6t13 6l236 235l236 -235q5 -6 13 -6t13.5 5.5t5.5 13.5t-6 13z" />
    <glyph glyph-name="asmkticon0205" unicode="&#xe657;" 
d="M877 621q-5 6 -13 6t-13 -6l-435 -434l-243 242q-5 6 -13 6t-13 -6q-6 -5 -6 -13t6 -13l256 -256q5 -6 13 -6t13 6l448 448q14 13 0 26z" />
    <glyph glyph-name="asmkticon0206" unicode="&#xe658;" 
d="M360 384l338 339q6 5 6 13t-6 13q-6 6 -13.5 6t-13.5 -6l-352 -352q-5 -5 -5 -13t5 -13l352 -352q6 -6 13.5 -6t13.5 5.5t6 13.5t-6 13z" />
    <glyph glyph-name="asmkticon0207" unicode="&#xe659;" 
d="M705 397l-352 352q-6 6 -14 6t-13 -6q-6 -5 -6 -13t6 -13l338 -339l-338 -339q-6 -5 -6 -13t6 -13q6 -6 13.5 -6t13.5 6l352 352q13 13 0 26z" />
    <glyph glyph-name="asmkticon0208" unicode="&#xe65a;" 
d="M877 225l-352 352q-5 5 -13 5t-13 -5l-352 -352q-6 -6 -6 -14t6 -13q5 -6 13 -6t13 6l339 338l339 -338q5 -6 13 -6t13 6q14 13 0 27z" />
    <glyph glyph-name="asmkticon0209" unicode="&#xe65b;" 
d="M877 577q-5 5 -13 5t-13 -5l-339 -339l-339 339q-5 5 -13 5t-13 -5q-6 -6 -6 -14t6 -13l352 -352q5 -6 13 -6t13 6l352 352q14 13 0 27z" />
    <glyph glyph-name="asmkticon0210" unicode="&#xe642;" 
d="M749 269q-5 6 -13 6t-13 -6l-192 -191v658q0 8 -5.5 13.5t-13.5 5.5t-13.5 -5.5t-5.5 -13.5v-658l-192 191q-5 6 -13 6t-13 -6q-6 -5 -6 -13t6 -13l224 -224q1 -2 3 -3l0.5 -0.5l0.5 -0.5l1 -0.5l1 -0.5l1 -0.5l1 -0.5h0.5h1.5l1.5 -0.5t2.5 -0.5q2 0 3 1h1.5h1t1 0.5
l0.5 0.5q1 0 2 1q1 0 1 0.5t1 0.5l3 3l224 224q11 14 -2 26z" />
    <glyph glyph-name="asmkticon0211" unicode="&#xe643;" 
d="M416 755q-8 0 -13.5 -5.5t-5.5 -13.5v-658l-192 191q-5 6 -13 6t-13 -6q-6 -5 -6 -13t6 -13l224 -224q1 -2 3 -3l1 -1l1 -0.5l1 -0.5l1 -0.5l1 -0.5h0.5h1.5l1.5 -0.5t2.5 -0.5q2 0 3 1h1.5h1t1 0.5l0.5 0.5q1 0 2 1l2 1q3 2 5 5v0.5v0.5q1 1 1 1.5t1 0.5v1.5v1t0.5 1
l0.5 0.5v2v2v704q0 8 -6 13.5t-14 5.5zM845 269q-5 6 -13 6t-13 -6l-192 -191v658q0 8 -5.5 13.5t-13.5 5.5t-13.5 -5.5t-5.5 -13.5v-704v-4l0.5 -0.5t0.5 -1t0.5 -1t0.5 -1.5l1 -2l1 -1q2 -3 5 -5l1 -1l1 -0.5l1 -0.5l1 -0.5l1 -0.5h0.5h1.5l1.5 -0.5t2.5 -0.5q2 0 3 1h1.5
h1t1 0.5l0.5 0.5q1 0 2 1l2 1l3 3l224 224q11 14 -2 26z" />
    <glyph glyph-name="asmkticon0212" unicode="&#xe644;" 
d="M160 461h704h4l0.5 0.5t1 0.5t1 0.5t1.5 0.5l2 1l1 1q3 2 5 5l0.5 0.5l0.5 0.5l0.5 1l0.5 1l0.5 1l0.5 1v0.5v1.5q1 4 0 7v1.5v1t-0.5 1l-0.5 0.5q0 1 -1 2l-1 2l-3 3l-224 224q-5 5 -13 5t-13 -5q-6 -6 -6 -14t6 -13l191 -193h-658q-8 0 -13.5 -5.5t-5.5 -13.5
t5.5 -13.5t13.5 -5.5zM864 307h-704h-4l-0.5 -0.5t-1 -0.5t-1 -0.5t-1.5 -0.5l-2 -1l-1 -1q-3 -2 -5 -5l-0.5 -0.5l-0.5 -0.5l-0.5 -1l-0.5 -1l-0.5 -1l-0.5 -1v-0.5v-1.5q-1 -4 0 -7v-1.5v-1t0.5 -1l0.5 -0.5q0 -1 1 -2l1 -2l3 -3l224 -224q5 -5 13 -5t13.5 5.5t5.5 13.5
t-6 13l-191 193h658q8 0 13.5 5.5t5.5 13.5t-5.5 13.5t-13.5 5.5z" />
    <glyph glyph-name="asmkticon0213" unicode="&#xe65c;" 
d="M512 51zM461 51q0 21 15 36t36 15t36 -15t15 -36t-15 -36t-36 -15t-36 15t-15 36zM512 154q16 0 27 11t11 27l26 512q0 26 -19 45t-45 19t-45 -19t-19 -45l26 -512q0 -16 11 -27t27 -11z" />
    <glyph glyph-name="asmkticon0214" unicode="&#xe645;" 
d="M795 435h-123q-8 0 -13.5 -5.5t-5.5 -13.5t5.5 -13.5t13.5 -5.5h123q21 0 35.5 -14.5t14.5 -35.5v-247q0 -20 -14.5 -34.5t-35.5 -14.5h-566q-21 0 -35.5 14.5t-14.5 34.5v247q0 21 14.5 35.5t35.5 14.5h123q8 0 13.5 5.5t5.5 13.5t-5.5 13.5t-13.5 5.5h-123
q-36 0 -62 -26t-26 -62v-247q0 -36 26 -62t62 -26h567q36 0 62 26t26 62v247q-1 36 -27 62t-62 26zM326 531q8 0 14 6l146 147v-466q0 -9 5.5 -14.5t14 -5.5t14 5.5t5.5 14.5v466l146 -147q6 -6 13.5 -6t13.5 6t6 14t-6 13l-179 179l-3 3h-1q-1 1 -1.5 1t-0.5 1h-1.5h-1
t-1 0.5l-0.5 0.5q-4 1 -8 0l-0.5 -0.5t-1 -0.5h-1h-1.5l-2 -2h-1l-3 -3l-179 -179q-6 -6 -6 -14t6 -13q7 -6 14 -6z" />
    <glyph glyph-name="asmkticon0215" unicode="&#xe646;" 
d="M288 384q0 -8 5.5 -13.5t13.5 -5.5h410q8 0 13.5 5.5t5.5 13.5t-5.5 13.5t-13.5 5.5h-410q-8 0 -13.5 -5.5t-5.5 -13.5zM448 717h128q8 0 13.5 5.5t5.5 13.5t-5.5 13.5t-13.5 5.5h-128q-8 0 -13.5 -5.5t-5.5 -13.5t5.5 -13.5t13.5 -5.5zM160 557q8 0 13.5 5.5t5.5 13.5
v90q0 21 15 36t36 15h90q8 0 13.5 5.5t5.5 13.5t-5.5 13.5t-13.5 5.5h-90q-37 0 -63 -26t-26 -63v-90q0 -8 5.5 -13.5t13.5 -5.5zM160 301q8 0 13.5 5.5t5.5 13.5v128q0 8 -5.5 13.5t-13.5 5.5t-13.5 -5.5t-5.5 -13.5v-128q0 -8 5.5 -13.5t13.5 -5.5zM320 51h-90
q-21 0 -36 15t-15 36v90q0 8 -5.5 13.5t-13.5 5.5t-13.5 -5.5t-5.5 -13.5v-90q0 -37 26 -63t63 -26h90q8 0 13.5 5.5t5.5 13.5t-5.5 13.5t-13.5 5.5zM576 51h-128q-8 0 -13.5 -5.5t-5.5 -13.5t5.5 -13.5t13.5 -5.5h128q8 0 13.5 5.5t5.5 13.5t-5.5 13.5t-13.5 5.5zM864 211
q-8 0 -13.5 -5.5t-5.5 -13.5v-90q0 -21 -15 -36t-36 -15h-90q-8 0 -13.5 -5.5t-5.5 -13.5t5.5 -13.5t13.5 -5.5h90q37 0 63 26t26 63v90q0 8 -5.5 13.5t-13.5 5.5zM864 467q-8 0 -13.5 -5.5t-5.5 -13.5v-128q0 -8 5.5 -13.5t13.5 -5.5t13.5 5.5t5.5 13.5v128q0 8 -5.5 13.5
t-13.5 5.5zM794 755h-90q-8 0 -13.5 -5.5t-5.5 -13.5t5.5 -13.5t13.5 -5.5h90q21 0 36 -15t15 -36v-90q0 -8 5.5 -13.5t13.5 -5.5t13.5 5.5t5.5 13.5v90q0 37 -26 63t-63 26z" />
    <glyph glyph-name="asmkticon0216" unicode="&#xe647;" 
d="M512 160q8 0 13.5 5.5t5.5 13.5v186h186q8 0 13.5 5.5t5.5 13.5t-5.5 13.5t-13.5 5.5h-186v186q0 8 -5.5 13.5t-13.5 5.5t-13.5 -5.5t-5.5 -13.5v-186h-186q-8 0 -13.5 -5.5t-5.5 -13.5t5.5 -13.5t13.5 -5.5h186v-186q0 -8 5.5 -13.5t13.5 -5.5zM448 717h128
q8 0 13.5 5.5t5.5 13.5t-5.5 13.5t-13.5 5.5h-128q-8 0 -13.5 -5.5t-5.5 -13.5t5.5 -13.5t13.5 -5.5zM160 557q8 0 13.5 5.5t5.5 13.5v90q0 21 15 36t36 15h90q8 0 13.5 5.5t5.5 13.5t-5.5 13.5t-13.5 5.5h-90q-37 0 -63 -26t-26 -63v-90q0 -8 5.5 -13.5t13.5 -5.5zM160 301
q8 0 13.5 5.5t5.5 13.5v128q0 8 -5.5 13.5t-13.5 5.5t-13.5 -5.5t-5.5 -13.5v-128q0 -8 5.5 -13.5t13.5 -5.5zM320 51h-90q-21 0 -36 15t-15 36v90q0 8 -5.5 13.5t-13.5 5.5t-13.5 -5.5t-5.5 -13.5v-90q0 -37 26 -63t63 -26h90q8 0 13.5 5.5t5.5 13.5t-5.5 13.5t-13.5 5.5z
M576 51h-128q-8 0 -13.5 -5.5t-5.5 -13.5t5.5 -13.5t13.5 -5.5h128q8 0 13.5 5.5t5.5 13.5t-5.5 13.5t-13.5 5.5zM864 211q-8 0 -13.5 -5.5t-5.5 -13.5v-90q0 -21 -15 -36t-36 -15h-90q-8 0 -13.5 -5.5t-5.5 -13.5t5.5 -13.5t13.5 -5.5h90q37 0 63 26t26 63v90
q0 8 -5.5 13.5t-13.5 5.5zM864 467q-8 0 -13.5 -5.5t-5.5 -13.5v-128q0 -8 5.5 -13.5t13.5 -5.5t13.5 5.5t5.5 13.5v128q0 8 -5.5 13.5t-13.5 5.5zM794 755h-90q-8 0 -13.5 -5.5t-5.5 -13.5t5.5 -13.5t13.5 -5.5h90q21 0 36 -15t15 -36v-90q0 -8 5.5 -13.5t13.5 -5.5
t13.5 5.5t5.5 13.5v90q0 37 -26 63t-63 26z" />
    <glyph glyph-name="asmkticon0217" unicode="&#xe648;" 
d="M576 755h-128q-8 0 -13.5 -5.5t-5.5 -13.5t5.5 -13.5t13.5 -5.5h128q8 0 13.5 5.5t5.5 13.5t-5.5 13.5t-13.5 5.5zM320 755h-90q-37 0 -63 -26t-26 -63v-90q0 -8 5.5 -13.5t13.5 -5.5t13.5 5.5t5.5 13.5v90q0 21 15 36t36 15h90q8 0 13.5 5.5t5.5 13.5t-5.5 13.5
t-13.5 5.5zM160 301q8 0 13.5 5.5t5.5 13.5v128q0 8 -5.5 13.5t-13.5 5.5t-13.5 -5.5t-5.5 -13.5v-128q0 -8 5.5 -13.5t13.5 -5.5zM320 51h-90q-21 0 -36 15t-15 36v90q0 8 -5.5 13.5t-13.5 5.5t-13.5 -5.5t-5.5 -13.5v-90q0 -37 26 -63t63 -26h90q8 0 13.5 5.5t5.5 13.5
t-5.5 13.5t-13.5 5.5zM576 51h-128q-8 0 -13.5 -5.5t-5.5 -13.5t5.5 -13.5t13.5 -5.5h128q8 0 13.5 5.5t5.5 13.5t-5.5 13.5t-13.5 5.5zM864 211q-8 0 -13.5 -5.5t-5.5 -13.5v-90q0 -21 -15 -36t-36 -15h-90q-8 0 -13.5 -5.5t-5.5 -13.5t5.5 -13.5t13.5 -5.5h90q37 0 63 26
t26 63v90q0 8 -5.5 13.5t-13.5 5.5zM864 467q-8 0 -13.5 -5.5t-5.5 -13.5v-128q0 -8 5.5 -13.5t13.5 -5.5t13.5 5.5t5.5 13.5v128q0 8 -5.5 13.5t-13.5 5.5zM794 755h-90q-8 0 -13.5 -5.5t-5.5 -13.5t5.5 -13.5t13.5 -5.5h90q21 0 36 -15t15 -36v-90q0 -8 5.5 -13.5
t13.5 -5.5t13.5 5.5t5.5 13.5v90q0 37 -26 63t-63 26z" />
    <glyph glyph-name="asmkticon0218" unicode="&#xe649;" 
d="M307 384q0 8 -5.5 13.5t-13.5 5.5h-128q-8 0 -13.5 -5.5t-5.5 -13.5t5.5 -13.5t13.5 -5.5h128q8 0 13.5 5.5t5.5 13.5zM864 403h-128q-8 0 -13.5 -5.5t-5.5 -13.5t5.5 -13.5t13.5 -5.5h128q8 0 13.5 5.5t5.5 13.5t-5.5 13.5t-13.5 5.5zM512 179q-8 0 -13.5 -5.5
t-5.5 -13.5v-128q0 -8 5.5 -13.5t13.5 -5.5t13.5 5.5t5.5 13.5v128q0 8 -5.5 13.5t-13.5 5.5zM512 755q-8 0 -13.5 -5.5t-5.5 -13.5v-128q0 -8 5.5 -13.5t13.5 -5.5t13.5 5.5t5.5 13.5v128q0 8 -5.5 13.5t-13.5 5.5zM340 239l-90 -91q-6 -5 -6 -13t6 -13q5 -6 13 -6t13 6
l91 90q5 6 5 13.5t-5 13.5q-6 5 -13.5 5.5t-13.5 -5.5zM670 523q8 0 14 6l90 91q6 5 6 13t-6 13q-5 6 -13 6t-13 -6l-91 -90q-5 -6 -5 -13.5t5 -13.5t13 -6zM684 239q-6 6 -13.5 6t-13.5 -6q-5 -5 -5 -13t5 -14l91 -90q5 -6 13 -6t13.5 6t5.5 14t-6 13zM276 646q-5 6 -13 6
t-13 -6q-6 -5 -6 -13t6 -13l90 -91q6 -5 13.5 -5t13 5.5t5.5 13.5t-5 13z" />
    <glyph glyph-name="asmkticon0219" unicode="&#xe64a;" 
d="M864 371q-8 0 -13.5 -5.5t-5.5 -13.5v-179q0 -24 -17 -41t-41 -17h-550q-24 0 -41 17t-17 41v422q0 24 17 41t41 17h243q8 0 13.5 5.5t5.5 13.5t-5.5 13.5t-13.5 5.5h-243q-40 0 -68 -28t-28 -68v-422q0 -40 28 -68t68 -28h550q40 0 68 28t28 68v179q0 8 -5.5 13.5
t-13.5 5.5zM477 316q2 -1 6 -1q14 0 18 13q15 48 46 91q44 58 114 91.5t156 36.5l-71 -71q-6 -6 -6 -13.5t6 -13.5q6 -5 13.5 -5t13.5 5l101 101q8 5 9 15v1v1q0 8 -6 13v0l-104 105q-6 6 -13.5 6t-13.5 -6t-6 -14t6 -13l73 -72q-96 -4 -174.5 -41t-128.5 -103
q-35 -47 -51 -102q-3 -8 0.5 -15t11.5 -9z" />
    <glyph glyph-name="asmkticon0221" unicode="&#xe65d;" 
d="M512 768q-159 0 -271.5 -112.5t-112.5 -271.5t112.5 -271.5t271.5 -112.5t271.5 112.5t112.5 271.5t-112.5 271.5t-271.5 112.5zM512 38q-94 0 -173.5 46.5t-126 126t-46.5 173.5t46.5 173.5t126 126t173.5 46.5t173.5 -46.5t126 -126t46.5 -173.5t-46.5 -173.5
t-126 -126t-173.5 -46.5zM512 384zM384 384q0 53 37.5 90.5t90.5 37.5t90.5 -37.5t37.5 -90.5t-37.5 -90.5t-90.5 -37.5t-90.5 37.5t-37.5 90.5z" />
    <glyph glyph-name="asmkticon0223" unicode="&#xe65e;" 
d="M512 768q-159 0 -271.5 -112.5t-112.5 -271.5t112.5 -271.5t271.5 -112.5t271.5 112.5t112.5 271.5t-112.5 271.5t-271.5 112.5zM512 38q-94 0 -173.5 46.5t-126 126t-46.5 173.5t46.5 173.5t126 126t173.5 46.5t173.5 -46.5t126 -126t46.5 -173.5t-46.5 -173.5
t-126 -126t-173.5 -46.5zM736 403h-448q-8 0 -13.5 -5.5t-5.5 -13.5t5.5 -13.5t13.5 -5.5h448q8 0 13.5 5.5t5.5 13.5t-5.5 13.5t-13.5 5.5z" />
    <glyph glyph-name="asmkticon0227" unicode="&#xe65f;" 
d="M512 768q-159 0 -271.5 -112.5t-112.5 -271.5t112.5 -271.5t271.5 -112.5t271.5 112.5t112.5 271.5t-112.5 271.5t-271.5 112.5zM512 38q-94 0 -173.5 46.5t-126 126t-46.5 173.5t46.5 173.5t126 126t173.5 46.5t173.5 -46.5t126 -126t46.5 -173.5t-46.5 -173.5
t-126 -126t-173.5 -46.5zM646 627h-268q-9 0 -14.5 -5.5t-5.5 -13.5t5.5 -13.5t14.5 -5.5h268q9 0 14.5 5.5t5.5 13.5t-5.5 13.5t-14.5 5.5zM525 538q-1 2 -3 3h-0.5h-0.5q0 1 -1 1t-1 1h-1h-1l-0.5 0.5t-1.5 0.5v0h-2h-1h-1h-2v0q-1 0 -1.5 -0.5l-0.5 -0.5h-2t-2 -2h-0.5
h-0.5q-2 -1 -3 -3l-135 -134q-6 -6 -6 -14t6 -13q6 -6 13.5 -6t13.5 6l102 102v-319q0 -8 5.5 -13.5t13.5 -5.5t13.5 5.5t5.5 13.5v319l102 -102q6 -6 13.5 -6t13.5 6t6 14t-6 13z" />
    <glyph glyph-name="asmkticon0229" unicode="&#xe661;" 
d="M512 768q-159 0 -271.5 -112.5t-112.5 -271.5t112.5 -271.5t271.5 -112.5t271.5 112.5t112.5 271.5t-112.5 271.5t-271.5 112.5zM512 38q-94 0 -173.5 46.5t-126 126t-46.5 173.5t46.5 173.5t126 126t173.5 46.5t173.5 -46.5t126 -126t46.5 -173.5t-46.5 -173.5
t-126 -126t-173.5 -46.5zM655 406l-201 116q-4 3 -12 3q-11 0 -18.5 -7.5t-7.5 -18.5v-231q0 -11 7.5 -18t18.5 -7q5 0 12 3l201 116q13 7 13 22t-13 22zM454 291v186l162 -93z" />
    <glyph glyph-name="asmkticon0231" unicode="&#xe662;" 
d="M397 461zM346 461q0 21 15 36t36 15t36 -15t15 -36t-15 -36t-36 -15t-36 15t-15 36zM627 461zM576 461q0 21 15 36t36 15t36 -15t15 -36t-15 -36t-36 -15t-36 15t-15 36zM512 755q-101 0 -186.5 -49.5t-135 -135t-49.5 -186.5t49.5 -186.5t135 -135t186.5 -49.5
t186.5 49.5t135 135t49.5 186.5t-49.5 186.5t-135 135t-186.5 49.5zM512 51q-90 0 -167 44.5t-121.5 121.5t-44.5 167t44.5 167t121.5 121.5t167 44.5t167 -44.5t121.5 -121.5t44.5 -167t-44.5 -167t-121.5 -121.5t-167 -44.5zM662.5 316.5q-6.5 4.5 -14.5 3t-12 -8.5
q-21 -32 -53.5 -50t-70.5 -18t-70.5 18t-53.5 50q-4 7 -12 8.5t-14.5 -3t-8 -12t2.5 -13.5q26 -41 67 -63.5t89 -22.5t89 22.5t67 63.5q4 6 2.5 13.5t-8 12z" />
    <glyph glyph-name="asmkticon0233" unicode="&#xe663;" 
d="M397 461zM346 461q0 21 15 36t36 15t36 -15t15 -36t-15 -36t-36 -15t-36 15t-15 36zM627 461zM576 461q0 21 15 36t36 15t36 -15t15 -36t-15 -36t-36 -15t-36 15t-15 36zM512 755q-101 0 -186.5 -49.5t-135 -135t-49.5 -186.5t49.5 -186.5t135 -135t186.5 -49.5
t186.5 49.5t135 135t49.5 186.5t-49.5 186.5t-135 135t-186.5 49.5zM512 51q-90 0 -167 44.5t-121.5 121.5t-44.5 167t44.5 167t121.5 121.5t167 44.5t167 -44.5t121.5 -121.5t44.5 -167t-44.5 -167t-121.5 -121.5t-167 -44.5zM640 275h-256q-8 0 -13.5 -5.5t-5.5 -13.5
t5.5 -13.5t13.5 -5.5h256q8 0 13.5 5.5t5.5 13.5t-5.5 13.5t-13.5 5.5z" />
    <glyph glyph-name="asmkticon0235" unicode="&#xe664;" 
d="M358 383q6 -5 13.5 -5t13.5 5l57 58q6 6 6 14t-6 13l-57 57q-6 6 -14 6t-13 -6q-6 -5 -6 -13t6 -13l44 -45l-44 -44q-14 -13 0 -27zM666 525q-6 6 -13.5 6t-13.5 -6l-57 -57q-6 -6 -6 -14t6 -13l57 -58q6 -5 13.5 -5t13.5 5.5t6 13.5t-6 13l-44 44l44 45q14 13 0 26z
M512 320q-48 0 -89 -22.5t-67 -63.5q-5 -6 -3 -14t9 -12q6 -4 14 -2.5t12 8.5q21 32 53.5 50t70.5 18t70.5 -18t53.5 -50q6 -9 16 -9q5 0 10 3q7 4 8.5 12t-2.5 14q-26 41 -67 63.5t-89 22.5zM512 755q-101 0 -186.5 -49.5t-135 -135t-49.5 -186.5t49.5 -186.5t135 -135
t186.5 -49.5t186.5 49.5t135 135t49.5 186.5t-49.5 186.5t-135 135t-186.5 49.5zM512 51q-90 0 -167 44.5t-121.5 121.5t-44.5 167t44.5 167t121.5 121.5t167 44.5t167 -44.5t121.5 -121.5t44.5 -167t-44.5 -167t-121.5 -121.5t-167 -44.5z" />
    <glyph glyph-name="asmkticon0237" unicode="&#xe665;" 
d="M865 585l-12 16q-53 72 -134.5 113t-172.5 41q-103 0 -190 -49.5t-137.5 -135t-50.5 -186.5t50.5 -186.5t137.5 -135t190 -49.5q88 0 168 38.5t133 107.5l13 15l-281 209zM804 168q-48 -55 -116.5 -86t-142.5 -31q-92 0 -170.5 44.5t-124 121.5t-45.5 167t45.5 167
t124 121.5t170.5 44.5q77 0 146.5 -32.5t118.5 -91.5l-297 -208zM608 621zM557 621q0 21 15 36t36 15t36 -15t15 -36t-15 -36t-36 -15t-36 15t-15 36z" />
    <glyph glyph-name="asmkticon0239" unicode="&#xe666;" 
d="M783.5 655.5q-55.5 55.5 -126 84t-145.5 28.5t-145.5 -28.5t-125.5 -84.5q-74 -73 -100.5 -172t0 -198t100.5 -172q55 -56 125.5 -84.5t145.5 -28.5t145.5 28.5t126 84t84 127t28.5 144.5t-28.5 144.5t-84 127zM756.5 139.5q-48.5 -48.5 -112 -75t-132.5 -26.5
t-132.5 26.5t-112 75t-75 112t-26.5 132.5t26.5 132.5t75 112t112 75t132.5 26.5t132.5 -26.5t112 -75t75 -112t26.5 -132.5t-26.5 -132.5t-75 -112zM512 198zM474 198.5q0 15.5 11 27t27 11.5t27 -11.5t11 -27t-11 -27t-27 -11.5t-27 11.5t-11 27zM512 595q-44 0 -75 -31
t-31 -74q0 -9 5.5 -14.5t14 -5.5t14 5.5t5.5 14.5q0 27 19.5 47t47.5 20t47.5 -20t19.5 -47q0 -29 -13 -50q-5 -7 -30 -22q-12 -8 -16 -12q-28 -25 -28 -51v-50q0 -8 5.5 -13.5t14 -5.5t14 5.5t5.5 13.5v50q2 10 14 22q3 3 13 9q35 24 40 33q20 31 20 70q0 44 -31 75t-75 31
z" />
    <glyph glyph-name="asmkticon0243" unicode="&#xe667;" 
d="M512 768q-159 0 -271.5 -112.5t-112.5 -271.5t112.5 -271.5t271.5 -112.5t271.5 112.5t112.5 271.5t-112.5 271.5t-271.5 112.5zM512 38q-94 0 -173.5 46.5t-126 126t-46.5 173.5t46.5 173.5t126 126t173.5 46.5t173.5 -46.5t126 -126t46.5 -173.5t-46.5 -173.5
t-126 -126t-173.5 -46.5zM736 403h-205v205q0 8 -5.5 13.5t-13.5 5.5t-13.5 -5.5t-5.5 -13.5v-205h-205q-8 0 -13.5 -5.5t-5.5 -13.5t5.5 -13.5t13.5 -5.5h205v-205q0 -8 5.5 -13.5t13.5 -5.5t13.5 5.5t5.5 13.5v205h205q8 0 13.5 5.5t5.5 13.5t-5.5 13.5t-13.5 5.5z" />
    <glyph glyph-name="asmkticon0245" unicode="&#xe668;" 
d="M783.5 655.5q-55.5 55.5 -126 84t-145.5 28.5t-145.5 -28.5t-125.5 -84.5q-74 -73 -100.5 -172t0 -198t100.5 -172q55 -56 125.5 -84.5t145.5 -28.5t145.5 28.5t126 84t84 127t28.5 144.5t-28.5 144.5t-84 127zM756 140q-48 -49 -111.5 -75.5t-132.5 -26.5t-132.5 26.5
t-111.5 75.5q-50 49 -76 114t-26 130t26 130t76 114q48 49 111.5 75.5t132.5 26.5t132.5 -26.5t111.5 -75.5q50 -49 76 -114t26 -130t-26 -130t-76 -114zM684 556q-6 6 -13.5 6t-13.5 -6l-145 -145l-145 145q-5 6 -13 6t-14 -6q-5 -6 -5 -13.5t5 -13.5l145 -145l-145 -145
q-5 -5 -5 -13t5 -14q6 -5 14 -5t13 5l145 145l145 -145q5 -5 13 -5t13.5 5.5t5.5 13.5t-5 13l-145 145l145 145q5 5 5 13t-5 14z" />
    <glyph glyph-name="asmkticon0247" unicode="&#xe660;" 
d="M783.5 655.5q-55.5 55.5 -126 84t-145.5 28.5t-145.5 -28.5t-125.5 -84.5q-74 -73 -100.5 -172t0 -198t100.5 -172q55 -56 125.5 -84.5t145.5 -28.5t145.5 28.5t126 84t84 127t28.5 144.5t-28.5 144.5t-84 127zM756.5 139.5q-48.5 -48.5 -112 -75t-132.5 -26.5
t-132.5 26.5t-112 75t-75 112t-26.5 132.5t26.5 132.5t75 112t112 75t132.5 26.5t132.5 -26.5t112 -75t75 -112t26.5 -132.5t-26.5 -132.5t-75 -112zM512 175zM480 175.5q0 13.5 9.5 22.5t22.5 9t22.5 -9t9.5 -22.5t-9.5 -23t-22.5 -9.5t-22.5 9.5t-9.5 23zM512 625
q-17 0 -28.5 -11.5t-11.5 -28.5l16 -321q0 -10 7 -17.5t17 -7.5t17 7.5t7 17.5l16 321q0 16 -11.5 28t-28.5 12z" />
    <glyph glyph-name="asmkticon0249" unicode="&#xe64b;" 
d="M783.5 655.5q-55.5 55.5 -126 84t-145.5 28.5t-145.5 -28.5t-125.5 -84.5q-74 -73 -100.5 -172t0 -198t100.5 -172q55 -56 125.5 -84.5t145.5 -28.5t145.5 28.5t126 84t84 127t28.5 144.5t-28.5 144.5t-84 127zM756.5 139.5q-48.5 -48.5 -112 -75t-132.5 -26.5
t-132.5 26.5t-112 75t-75 112t-26.5 132.5t26.5 132.5t75 112t112 75t132.5 26.5t132.5 -26.5t112 -75t75 -112t26.5 -132.5t-26.5 -132.5t-75 -112zM675 509l-211 -210l-115 114q-5 6 -13 6t-13 -6q-6 -5 -6 -13t6 -13l128 -128q5 -6 13 -6t13 6l224 224q6 5 6 13t-6 13
q-13 14 -26 0z" />
    <glyph glyph-name="asmkticon0251" unicode="&#xe64d;" 
d="M512 768q-159 0 -271.5 -112.5t-112.5 -271.5t112.5 -271.5t271.5 -112.5t271.5 112.5t112.5 271.5h-384v384zM856 346q-15 -131 -113 -219.5t-231 -88.5q-94 0 -173.5 46.5t-126 126t-46.5 173.5q0 132 88.5 230.5t219.5 113.5v-344v-38h38h344zM602 768v-294h294
q0 122 -86 208t-208 86zM640 727q83 -12 142.5 -72t72.5 -143h-215v215z" />
    <glyph glyph-name="asmkticon0260" unicode="&#xe64c;" 
d="M512 768q-159 0 -271.5 -112.5t-112.5 -271.5t112.5 -271.5t271.5 -112.5t271.5 112.5t112.5 271.5t-112.5 271.5t-271.5 112.5zM512 38q-94 0 -173.5 46.5t-126 126t-46.5 173.5t46.5 173.5t126 126t173.5 46.5t173.5 -46.5t126 -126t46.5 -173.5t-46.5 -173.5
t-126 -126t-173.5 -46.5z" />
    <glyph glyph-name="weibiaoti1" unicode="&#xe669;" 
d="M831 601l-41 41l17 17q8 8 8 19t-8 19t-19.5 8t-18.5 -8l-272 -271q-50 35 -110 35q-76 0 -129.5 -53.5t-53.5 -129.5t53.5 -130t129.5 -54t130 54q49 48 53.5 116.5t-35.5 122.5l148 147l41 -41q8 -7 19.5 -7t18.5 7q8 9 8 20t-8 19l-16 16l30 31l16 -17q8 -8 19.5 -8
t19.5 8t8 19.5t-8 19.5zM479 187q-37 -38 -91 -38t-92 38t-38 91.5t38 90.5q38 38 92 38t91 -38q38 -38 38 -91.5t-38 -90.5z" />
    <glyph glyph-name="certificatezhengjian" unicode="&#xe697;" 
d="M951 750q32 0 52.5 -20.5t20.5 -52.5v-586q0 -32 -20.5 -52.5t-52.5 -20.5h-878q-32 0 -52.5 20.5t-20.5 52.5v586q0 32 20.5 52.5t52.5 20.5h366v128q0 18 18 18h110q18 0 18 -18v-128h366zM987 677q0 36 -36 36h-366v-55q0 -18 -18 -18h-110q-18 0 -18 18v55h-366
q-36 0 -36 -36v-586q0 -36 36 -36h878q36 0 36 36v586v0zM439 219q0 53 -37.5 90.5t-90.5 37.5t-90.5 -37.5t-37.5 -90.5q0 -18 -18.5 -18t-18.5 18q0 69 48 117t117 48t116.5 -48t47.5 -117q0 -18 -18 -18t-18 18zM374.5 411.5q-27.5 -27.5 -64 -27.5t-64 27.5t-27.5 64
t27.5 64t64 27.5t64 -27.5t27.5 -64t-27.5 -64zM350 514q-16 16 -39 16t-39 -16t-16 -39t16 -38q16 -16 39 -16t39 16t16 38.5t-16 38.5zM475 677h74v182h-74v-182zM859 530h-256q-18 0 -18 18.5t18 18.5h256q19 0 19 -18.5t-19 -18.5zM859 421h-256q-18 0 -18 18t18 18h256
q19 0 19 -18t-19 -18zM859 311h-256q-18 0 -18 18.5t18 18.5h256q19 0 19 -18.5t-19 -18.5zM859 201h-256q-18 0 -18 18.5t18 18.5h256q19 0 19 -18.5t-19 -18.5z" />
    <glyph glyph-name="dengpao1" unicode="&#xe62c;" 
d="M604 26h-184q-7 0 -12.5 -5.5t-5.5 -13t5 -13t13 -5.5h184q7 0 12.5 5.5t5.5 13t-5 13t-13 5.5zM576 -29h-128q-8 0 -13.5 -5.5t-5.5 -13t5.5 -13t13.5 -5.5h128q8 0 13.5 5.5t5.5 13t-5.5 13t-13.5 5.5zM181 439h-73q-8 0 -13.5 -5t-5.5 -13t5.5 -13.5t13.5 -5.5h73
q8 0 13.5 5.5t5.5 13.5t-5.5 13t-13.5 5zM916 439h-73q-8 0 -13.5 -5t-5.5 -13t5.5 -13.5t13.5 -5.5h73q8 0 13.5 5.5t5.5 13.5t-5.5 13t-13.5 5zM249 186l-36 -36q-5 -6 -5 -14t5.5 -13t13 -5t13.5 5l36 36q5 5 5 13t-5 14q-5 5 -12.5 5t-14.5 -5zM783 718l-36 -36
q-5 -5 -5 -13t5 -13.5t13 -5.5t13 6l36 36q6 5 6 13t-5.5 13.5t-13.5 5.5t-13 -6zM250 656q6 -6 13.5 -6t13 5.5t5.5 13.5t-5 13l-36 36q-6 6 -13.5 6t-13 -5.5t-5.5 -13.5t5 -13zM774 186q-6 5 -13.5 5t-13 -5.5t-5.5 -13.5t5 -13l36 -36q6 -5 13.5 -5t13 5t5.5 13t-5 14z
M512.5 724q7.5 0 12.5 5.5t5 12.5v74q0 7 -5 12.5t-13 5.5t-13 -5.5t-5 -12.5v-74q0 -7 5.5 -12.5t13 -5.5zM512 687q-114 0 -194.5 -80.5t-80.5 -194.5q0 -73 34.5 -134.5t93.5 -98.5v-97q0 -16 11 -26.5t26 -10.5h221q15 0 26 10.5t11 26.5v96q58 38 93 99.5t35 133.5
q0 115 -81 195.5t-195 80.5zM640 209q-18 -10 -18 -31v-97h-92v159l88 86q4 5 4 12.5t-4 12.5q-5 5 -12.5 5t-12.5 -5l-81 -80l-81 80q-5 5 -12.5 5t-12 -5t-4.5 -12t4 -13l88 -86v-159h-92v97q0 20 -18 31q-52 33 -81.5 86.5t-29.5 115.5q0 99 70 169t169 70t169 -70
t70 -169q0 -61 -29.5 -115t-81.5 -87zM751 411q0 99 -70 169t-169 70t-169 -70t-70 -169q0 -62 29.5 -115.5t81.5 -86.5q18 -11 18 -31v-97h92v159l-88 86q-4 6 -4 13t4.5 12t12 5t12.5 -5l81 -80l81 80q5 5 12.5 5t12.5 -5q4 -5 4 -12.5t-4 -12.5l-88 -86v-159h92v97
q0 22 18 31q52 33 81.5 87t29.5 115zM435 555q-65 -43 -87 -119q-5 -16 -22 -16q-2 0 -6 1q-9 3 -13.5 11t-1.5 17q26 91 105 144q8 5 17 3t14 -9q5 -8 3.5 -17t-9.5 -15z" />
  </font>
</defs>
</svg>
